<?xml version="1.0" encoding="UTF-8" standalone="no"?>
<!-- Creator: CorelDRAW -->

<svg
   xmlns:dc="http://purl.org/dc/elements/1.1/"
   xmlns:cc="http://creativecommons.org/ns#"
   xmlns:rdf="http://www.w3.org/1999/02/22-rdf-syntax-ns#"
   xmlns:svg="http://www.w3.org/2000/svg"
   xmlns="http://www.w3.org/2000/svg"
   xmlns:sodipodi="http://sodipodi.sourceforge.net/DTD/sodipodi-0.dtd"
   xmlns:inkscape="http://www.inkscape.org/namespaces/inkscape"
   xml:space="preserve"
   width="7.01046in"
   height="6.26091in"
   style="shape-rendering:geometricPrecision; text-rendering:geometricPrecision; image-rendering:optimizeQuality; fill-rule:evenodd; clip-rule:evenodd"
   viewBox="0 0 6.94494 6.2024"
   id="svg2995"
   version="1.1"
   inkscape:version="0.48.4 r9939"
   sodipodi:docname="Lungta symbol.svg"><title
   id="title3011">Lungta symbol</title><metadata
   id="metadata3009"><rdf:RDF><cc:Work
       rdf:about=""><dc:format>image/svg+xml</dc:format><dc:type
         rdf:resource="http://purl.org/dc/dcmitype/StillImage" /><cc:license
         rdf:resource="http://creativecommons.org/licenses/by-sa/3.0/" /><dc:title>Lungta symbol</dc:title><dc:date>2014-11-11</dc:date><dc:creator><cc:Agent><dc:title>Christopher J. Fynn</dc:title></cc:Agent></dc:creator><dc:rights><cc:Agent><dc:title>Christopher J. Fynn</dc:title></cc:Agent></dc:rights><dc:publisher><cc:Agent><dc:title>Christopher J. Fynn</dc:title></cc:Agent></dc:publisher><dc:contributor><cc:Agent><dc:title>Christopher J. Fynn</dc:title></cc:Agent></dc:contributor><dc:description>Lingta or windhorse.Printed at the center of many Buddhist prayer flags.Symbolises the union of the four elements of personal vitality and also represents Prince Sidhartha's faithful horse Kanthaka.

Based on an element from old Bhutanese xylograpgh for printing prayer flages</dc:description><dc:subject><rdf:Bag><rdf:li>Lungta</rdf:li><rdf:li>Windhorse prayer flag</rdf:li></rdf:Bag></dc:subject></cc:Work><cc:License
       rdf:about="http://creativecommons.org/licenses/by-sa/3.0/"><cc:permits
         rdf:resource="http://creativecommons.org/ns#Reproduction" /><cc:permits
         rdf:resource="http://creativecommons.org/ns#Distribution" /><cc:requires
         rdf:resource="http://creativecommons.org/ns#Notice" /><cc:requires
         rdf:resource="http://creativecommons.org/ns#Attribution" /><cc:permits
         rdf:resource="http://creativecommons.org/ns#DerivativeWorks" /><cc:requires
         rdf:resource="http://creativecommons.org/ns#ShareAlike" /></cc:License></rdf:RDF></metadata><sodipodi:namedview
   pagecolor="#ffffff"
   bordercolor="#666666"
   borderopacity="1"
   objecttolerance="10"
   gridtolerance="10"
   guidetolerance="10"
   inkscape:pageopacity="0"
   inkscape:pageshadow="2"
   inkscape:window-width="1600"
   inkscape:window-height="840"
   id="namedview3007"
   showgrid="false"
   inkscape:zoom="0.41882443"
   inkscape:cx="-18.798241"
   inkscape:cy="281.74097"
   inkscape:window-x="-4"
   inkscape:window-y="-4"
   inkscape:window-maximized="1"
   inkscape:current-layer="svg2995" />
 <defs
   id="defs2997">
  <style
   type="text/css"
   id="style2999">
   
    .fil1 {fill:none}
    .fil0 {fill:black}
   
  </style>
 </defs>
 <g
   id="Layer_x0020_1">
  <metadata
   id="CorelCorpID_0Corel-Layer" />
  <path
   class="fil0"
   d="M5.55623 6.07711c0.0428282,-0.0208154 0.0514048,-0.0575281 0.0746735,-0.0942876 0.00978173,-0.0514048 0.0281361,-0.115048 0.0281361,-0.166504 0,-0.0428282 -0.0244738,-0.0795916 -0.0538619,-0.10898 -0.0318452,-0.00977783 -0.0624385,-0.0208154 -0.0930318,-0.0342556 0.014696,-0.0392166 0.0416231,-0.0710151 0.0563191,-0.110232 -0.111437,-0.0930318 -0.166555,-0.239976 -0.166555,-0.383211 3.90021e-006,-0.0636944 0.0073714,-0.127334 0.0134908,-0.189773 0.0110376,-0.0232726 0.014696,-0.0490023 0.014696,-0.0747281 0,-0.115099 0.0514048,-0.235062 0.0514048,-0.345243 0,-0.0906292 -0.0771345,-0.0967448 -0.11139,-0.204519 -0.0392166,-0.126086 0.0195635,-0.261997 0.0195635,-0.392993 0,-0.0440841 -0.00486747,-0.0979967 -0.0281361,-0.135911 0.0367127,-0.0367634 0.0611865,-0.0771345 0.0611865,-0.12859 0,-0.0526568 -0.0232219,-0.0795916 -0.0611865,-0.112642 -0.0453361,-0.127334 -0.106523,-0.286517 -0.168961,-0.415057 0.00611943,-0.0146921 -0.00245713,-0.0318452 -0.0208154,-0.0416231l0.0305972 -0.0122896c0.0452854,0.030644 0.127334,0.0783904 0.182448,0.0783904 0.0636437,-3.90021e-006 0.126082,-0.0220167 0.189777,-0.0220167 0.132202,-3.90021e-006 0.304872,0.0636398 0.396698,0.176282 0.0391698,0.0477425 0.0636437,0.105321 0.0636437,0.170217 3.90021e-006,0.0930279 -0.0146921,0.18611 -0.0146921,0.279142 0,0.0379647 0,0.0795916 0.00245713,0.123676 0.00491427,0.0942876 0.0171492,0.195892 0.0575749,0.265706 0.0281322,0.0514048 0.0954889,0.123672 0.145689,0.14815 -0.00977783,-0.0355075 -0.0318452,-0.0624385 -0.0489984,-0.0906253 -0.0342517,-0.056323 -0.0452854,-0.232605 -0.0477425,-0.357532 0,-0.0832539 0.012235,-0.235062 -0.026931,-0.317111 -0.0036623,0.00857657 -0.0110376,0.243638 -0.013444,0.337922 3.90021e-006,0.111437 0.0355075,0.217959 0.0611865,0.335516 -0.0599814,-0.0954889 -0.0930318,-0.220417 -0.0930318,-0.330602 0.00246103,-0.124877 0.0196103,-0.249754 0.0196103,-0.375887 0,-0.0832539 -0.0281868,-0.154269 -0.0759293,-0.213045 -0.104065,-0.12859 -0.297551,-0.194691 -0.459141,-0.194691 -0.00982854,0 -0.0661515,0.0244738 -0.14203,0.0232726 -0.0489984,-0.00125587 -0.105317,-0.014696 -0.166555,-0.0783904 -0.107724,0.0343063 -0.217909,0.0795916 -0.331807,0.0795916 -0.1163,0 -0.238771,-0.0171492 -0.340379,-0.0771306l0.00611943 -0.0477464c0.144487,-0.00120517 0.222823,-0.0440841 0.396702,-0.193435 0.117556,0.0538619 0.35387,0.0942837 0.456731,0.0942837 0.0942369,0 0.21425,-0.0881643 0.417514,-0.086963 0.184862,0.00125587 0.384463,0.135911 0.464055,0.318367 0.0563269,0.128535 0.0991512,0.364853 0.143235,0.581561 0.0367634,0.181247 0.0746774,0.347751 0.120013,0.423684 0.0477503,0.0942837 0.14815,0.22528 0.215502,0.280398 0.0342556,0.0281322 0.0599814,0.0489477 0.106523,0.0489477 0.0036662,0 0.0195596,-0.00120517 0.0195596,-0.00857657 3.90021e-006,-0.0122389 -0.0685579,-0.0599814 -0.0905746,-0.0783397 -0.0747242,-0.0624385 -0.155521,-0.184909 -0.204519,-0.268159 -0.0734215,-0.123676 -0.106523,-0.263249 -0.130996,-0.40648 -0.0367088,-0.214301 -0.0514048,-0.435923 -0.145692,-0.614662 -0.0771306,-0.149405 -0.304872,-0.325687 -0.487324,-0.325687 -0.146944,0 -0.298756,0.0857111 -0.455482,0.0857111 -0.0624346,0 -0.35387,-0.0489984 -0.399156,-0.0845059 0.0220674,-0.0502035 0.0563191,-0.130996 0.0587762,-0.186114 0.0122389,-0.0110337 0.0257297,-0.0244738 0.0428321,-0.0244738 0.0453361,0 0.0734722,0.160385 0.195943,0.160385 0.0599814,0 0.257129,-0.127334 0.257129,-0.239976 0,-0.0122389 -0.00491427,-0.030644 -0.018409,-0.030644 -0.0624346,0 -0.160385,0.115099 -0.213041,0.115099 -0.0611865,0 -0.0489516,-0.202012 -0.1812,-0.202012 -0.0489477,-3.90021e-006 -0.0967448,0.0244738 -0.137116,0.0489984 -0.0759293,-0.0171531 -0.356327,-0.120013 -0.356327,-0.205721 0,-0.0379686 0.0245245,-0.0832539 0.0685579,-0.0832539 0.0612372,0 0.146944,0.236314 0.318363,0.236314 0.113898,0 0.222823,-0.0771306 0.222823,-0.199601 3.90021e-006,-0.0489516 -0.0330504,-0.0758825 -0.05261,-0.117506 0.0159012,-0.0281868 0.0122389,-0.112642 0.0575281,-0.112642 0.0367595,0 0.0698099,0.026931 0.107775,0.026931 0.0881175,-3.90021e-006 0.19464,-0.137167 0.214246,-0.260838l-0.0232687 0.00611553c-0.0134401,0.0489984 -0.116304,0.0918773 -0.165299,0.0930825 -0.0599814,0 -0.104069,-0.104065 -0.189777,-0.104065 -0.0759293,0 -0.206926,0.0526607 -0.206926,0.145692 0,0.0710151 0.0563191,0.124877 0.0746735,0.189777 -0.0220128,0.0391659 0.0134947,0.117552 -0.0599814,0.117552 -0.162842,0 -0.0636398,-0.258331 -0.315906,-0.258331 -0.135911,0 -0.277941,0.159133 -0.279146,0.266907 3.90021e-006,0.012235 0.014696,0.0257297 0.014696,0.0379647 3.90021e-006,0.0244738 -0.0232726,0.0330504 -0.041627,0.0330504 -0.0220674,0 -0.0453361,-0.0538619 -0.0453361,-0.0734722 0.0355075,-0.0257297 0.217959,-0.277941 0.217959,-0.39304 0,-0.0587801 -0.0367088,-0.117556 -0.0367088,-0.1812 0,-0.0110298 0.0134401,-0.0318452 0.0134401,-0.0563191 0,-0.0208154 -0.00857657,-0.0440841 -0.041627,-0.0710151l-0.00491427 0.0195596c0.00982854,0.0110298 0.0146921,0.030644 0.0146921,0.0526607 3.90021e-006,0.0355075 -0.0342517,0.0820488 -0.0599814,0.08325 -0.0183544,0 -0.0318452,-0.0256751 -0.0318452,-0.0440841 3.90021e-006,-0.037914 0.0404218,-0.0734215 0.0404218,-0.113843 0,-0.0526607 -0.00611943,-0.10286 -0.0379647,-0.145692 -0.0110298,-0.0526607 -0.00486357,-0.111437 -0.0281361,-0.160435 -0.0196064,0.0367595 -0.0293881,0.0979967 -0.0404218,0.154316 -0.00977783,0.05261 -0.0220167,0.124881 -0.0612333,0.124881 -0.0134401,-3.90021e-006 -0.0244777,-0.00857657 -0.0317984,-0.0171531 0.00120517,-0.0428282 0.0685579,-0.097946 0.0685579,-0.209383 3.90021e-006,-0.140778 -0.127334,-0.263249 -0.127334,-0.358738 0,-0.0183544 0.0073207,-0.0563191 0.0073207,-0.0930825 0,-0.0342517 -0.0134401,-0.05261 -0.0342556,-0.0819942 -0.0146921,0.0146921 -0.0220635,0.0367088 -0.0220635,0.0587762 0,0.0208115 0.00245713,0.0391659 0.00245713,0.0563191 0,0.0342556 -0.0379647,0.0661008 -0.0379647,0.107728l0 0.0526568c0,0.0244738 -0.00245713,0.0551178 -0.0318491,0.056323 -0.0183544,-0.0183583 -0.037914,-0.0428789 -0.037914,-0.0673567 3.90021e-006,-0.0954889 0.0648488,-0.154265 0.0648488,-0.246092 0,-0.0612372 -0.0122389,-0.127338 -0.0575281,-0.16776 -0.0367088,-0.0330504 -0.0710112,-0.0673528 -0.0710112,-0.117556 0,-0.0734215 0.0196064,-0.119963 0.0196064,-0.19464 0,-0.0146921 -0.0220674,-0.0833007 -0.0624892,-0.106523 -0.0293374,0.025679 -0.026931,0.0918305 -0.0317945,0.129744 -0.0122389,0.101655 -0.139573,0.139624 -0.139573,0.20081 0,0.0747242 0.0391698,0.148146 0.0391698,0.224075 0,0.014696 -0.0245245,0.0391698 -0.0404257,0.0391698 -0.0146921,-3.90021e-006 -0.0293881,-0.00120517 -0.0416231,-0.00120517 -0.111437,0 -0.0710151,0.0636944 -0.0930318,0.198353 -0.00125587,0.00857657 -0.0171531,0.0196064 -0.0355075,0.0196064 -0.0146921,0 -0.0379647,-0.00982854 -0.0379647,-0.026931 0,-0.030644 0.0464905,-0.099198 0.0464905,-0.134706 0,-0.0355075 -0.0403711,-0.0795916 -0.0403711,-0.100403 0,-0.0452893 0.0587762,-0.0942876 0.0918266,-0.117556 -0.0110337,-0.00486747 -0.0257297,-0.0122389 -0.0367595,-0.0122389 -0.0502035,0 -0.134659,0.0734722 -0.134659,0.120013 0,0.0244738 0.00245713,0.0575242 0.00245713,0.0832539 0,0.0281322 -0.00983244,0.0477425 -0.0539126,0.0477425 -0.00611943,-0.0036623 -0.013444,-0.0110337 -0.013444,-0.0183544 3.90021e-006,-0.0257297 0.026931,-0.0404218 0.026931,-0.0648956 3.90021e-006,-0.00857657 -0.0146921,-0.00978173 -0.0196064,-0.00978173 -0.0489477,0.0281361 -0.14815,0.21425 -0.14815,0.269368 0,0.0379608 0.0220674,0.0783358 0.0220674,0.117506 0,0.0343024 -0.0208154,0.115095 -0.0636944,0.115095 -0.012235,0 -0.0232687,-0.0183544 -0.0232687,-0.026931 0,-0.0330504 0.00982854,-0.0661008 0.00982854,-0.0991473 0,-0.0208154 -0.0184051,-0.0379647 -0.0184051,-0.0587801 0,-0.0379647 0.0269817,-0.0893695 0.0269817,-0.134709l-0.0134908 0.0110337c-0.0771345,0.0869123 -0.143235,0.226536 -0.143235,0.351417 0,0.0697592 0.0550671,0.14203 0.0550671,0.210588 0,0.0257258 -0.0158973,0.0624385 -0.0465412,0.0624385 -0.023218,-3.90021e-006 -0.0526061,-0.0195596 -0.0526061,-0.0489477 0,-0.0281868 0.0146921,-0.0575749 0.0146921,-0.0845059 0,-0.0330543 -0.0293881,-0.0551178 -0.0330972,-0.0954928 -0.0710151,0.241181 -0.0991551,0.38201 -0.0991551,0.494648 3.90021e-006,0.122424 0.0355114,0.210588 0.11756,0.319568 0.0661008,0.0881682 0.159179,0.177538 0.214246,0.254672l-0.0305933 0.0710151c-0.0232687,0.015948 -0.0465412,0.0355075 -0.0575749,0.0612372 -0.00486357,0.012235 -0.00486357,0.0281322 -0.00486357,0.0440802 -0.0392166,0.0355075 -0.0820488,0.0636437 -0.12859,0.0967448 -0.0171492,-0.0220674 -0.0403711,-0.041627 -0.0660969,-0.0526607 -0.0257297,0.00857657 -0.0538658,0.0122389 -0.0832539,0.0122389 -0.213045,0 -0.490986,-0.208131 -0.483665,-0.374686 0,-0.013444 0.00245713,-0.026931 0.00245713,-0.0440841l0.0293881 0.026931c0,0.193486 0.303671,0.367365 0.481208,0.367365l-0.0355075 -0.0404257c-0.115099,-0.0220167 -0.415107,-0.150603 -0.397954,-0.299958 0.0073753,0.00611943 0.0477464,0.0195596 0.0538619,0.0281361 0.014696,0.112638 0.232655,0.236318 0.320824,0.236318 0.00611943,0 0.012235,-0.00120517 0.0171531,-0.00611943l-0.0269817 -0.0343063c-0.0685579,-0.0073246 -0.270569,-0.110181 -0.270569,-0.18611 0.0355075,0.0110298 0.0673528,0.0245245 0.107724,0.0281829 0.0343063,0.0440841 0.0808436,0.100403 0.157978,0.112642l-0.00857657 -0.0355075c-0.0343024,-0.014696 -0.0771306,-0.0367127 -0.0918266,-0.0710151 0.0746774,0 0.150607,-0.00611943 0.224079,-0.0158973l-0.0440841 -0.0379686c-0.0440841,0.00611943 -0.117556,0.0183583 -0.171418,0.013444 -0.224079,-0.0183583 -0.402872,-0.150607 -0.408992,-0.319568 3.90021e-006,-0.013444 0.00125587,-0.0281361 0.003713,-0.0428321l0.0428321 0.0195596c-0.00245713,0.0146921 -0.00245713,0.0281868 -0.00245713,0.041627 0,0.21184 0.242433,0.264501 0.424885,0.264501 0.0257297,0 0.0685579,-0.00125197 0.0930318,-0.00611943l-0.0208154 -0.026931c-0.0244699,0.00120127 -0.0550632,0.00246103 -0.0893695,0 -0.133454,-0.00983244 -0.374635,-0.0648956 -0.374635,-0.22528 0,-0.0110337 0.00120517,-0.0245245 0.0036623,-0.0367595l0.0305933 0.0122311c-0.00120517,0.00983244 -0.00120517,0.0196142 -0.00120517,0.0281868 0.00486747,0.118761 0.192234,0.183657 0.336721,0.193439 0.0330504,0.00245713 0.0636398,0.0036584 0.0881175,0.00125197l-0.0171024 -0.0269817c-0.0208154,0.00245713 -0.0489984,0.00125587 -0.0808475,-0.00240643 -0.121215,-0.014696 -0.290176,-0.0734722 -0.281599,-0.189823l0.0477425 0.00616624c0.00611943,0.119963 0.143286,0.164047 0.230198,0.162846 0.0158973,-3.90021e-006 0.0501996,-0.00246103 0.0636905,-0.0134908l-0.0171492 -0.0257336c-0.014696,0.0037169 -0.0318452,0.00612333 -0.0526607,0.00491817 -0.0783865,-0.0036623 -0.17879,-0.0404218 -0.17879,-0.120013l0.0551178 0.0073714c0.0036584,0.0404218 0.099198,0.0967448 0.173875,0.0869162l-0.0110337 -0.0317984c-0.0465412,0.00852586 -0.107728,-0.015948 -0.117556,-0.0514555 0.0465412,0.00125587 0.0820488,-0.0036623 0.123672,-0.0208115l-0.0318452 -0.0330504c-0.0134401,0.0110298 -0.037914,0.0146921 -0.0550671,0.0146921 -0.221618,0 -0.50202,-0.0820449 -0.511798,-0.333059 0,-0.0146921 0,-0.0317945 0.0036584,-0.0489477l0.0404257 0.0232687c0.0134401,0.107728 0.0305933,0.32323 0.450564,0.32323 0.0220635,0 0.0465412,-0.00245713 0.0673528,-0.0110337l-0.0073714 -0.0305894c-0.170166,0 -0.467717,-0.029392 -0.467717,-0.264501l0.0257297 0.00611553c0.0158973,0.0379647 -0.00611943,0.193486 0.310987,0.220421 0.0330543,0.00245713 0.0636944,-0.0036623 0.100407,-0.0036623l-0.0244738 -0.0379686c-0.0257297,0 -0.0502035,0.00491817 -0.0771345,0.0036623 -0.166555,-0.00857657 -0.269364,-0.115095 -0.269364,-0.179995l0.0305933 0.00246103c0.0599814,0.08325 0.117552,0.129791 0.238771,0.148146 0.0232219,0.0036623 0.0464905,0.0036623 0.0648956,-0.00120127l-0.0318452 -0.0428828c-0.0073714,0.00246103 -0.0244738,0.003713 -0.0367634,0.003713 -0.0599814,0 -0.171418,-0.0673528 -0.186114,-0.110236l0.04534 -0.00486357c0.0514048,0.0391698 0.100403,0.0758825 0.160385,0.0734215l-0.0196064 -0.0403711c-0.0464944,0.00120127 -0.071019,-0.0134908 -0.0918305,-0.0453361 0.0698138,-0.0232219 0.118758,-0.0305933 0.199605,-0.0648488l-0.0391698 -0.0245245c-0.0833007,0.0208115 -0.204519,0.0673567 -0.307329,0.0673567 -0.139624,-3.90021e-006 -0.323281,-0.192234 -0.355075,-0.334264l0.0648956 0.0281829c0.0428282,0.171371 0.167709,0.252215 0.337922,0.252215 0.0514087,0 0.175081,-0.0281829 0.213045,-0.0514555l-0.0404218 -0.0391698c-0.0563191,0.029392 -0.106523,0.0490023 -0.171418,0.0490023 -0.0758786,-3.90021e-006 -0.269364,-0.0795916 -0.281603,-0.188571l0.0489984 0.0134908c0.106523,0.123621 0.140778,0.138317 0.235062,0.138317 0.0440841,0 0.0954889,-0.0305894 0.138368,-0.0428282l-0.0281829 -0.0318491c-0.0330504,0.0208154 -0.0795916,0.0305933 -0.119963,0.0305933 -0.0600321,0 -0.118761,-0.0440334 -0.160439,-0.0844552l0.0857111 0c0.0220674,0.026931 0.0600321,0.0514087 0.0942876,0.0514087 0.0196064,-3.90021e-006 0.0734722,-0.00246103 0.0857072,-0.0171531l-0.0342517 -0.0342556c-0.0110337,0.00491427 -0.0281868,0.0110337 -0.04534,0.0110337 -0.0146921,0 -0.0293881,-0.00611943 -0.0403711,-0.0196064 0.0477464,-0.014696 0.119963,-0.041627 0.150607,-0.0820488l-0.0245245 -0.0208193c-0.067306,0.0257297 -0.102814,0.0624424 -0.205674,0.0624424 -0.154265,0 -0.328144,-0.0367088 -0.415107,-0.176282 0.00857657,-0.018409 0.0318491,-0.0245245 0.0502035,-0.0245245 0.00982854,-3.90021e-006 0.0196103,0 0.0293881,0.0037091 0.04534,0.116304 0.186114,0.162846 0.291432,0.162846 0.0906253,0 0.149351,-0.0232726 0.209387,-0.0551178l-0.0257297 -0.0220206c-0.0514048,0.014696 -0.120013,0.0367166 -0.177538,0.0367166 -0.0551178,0 -0.210588,-0.0379647 -0.220417,-0.100407l0.0636905 -0.0244738c0.0599853,0.0342517 0.106523,0.0771345 0.189777,0.0771345 0.0355075,0 0.072267,-0.0073714 0.104065,-0.0244738l-0.0208115 -0.0281868c-0.0232726,0.00857657 -0.0489516,0.0122389 -0.0734761,0.0110337 -0.0550632,-0.00245713 -0.111386,-0.026931 -0.157927,-0.0661476l0.0379647 -0.0183583c0.0343063,0.0171531 0.117556,0.0575749 0.168965,0.0489984l-0.0110337 -0.0220674c-0.0305933,-0.0171024 -0.0979499,-0.0330465 -0.115099,-0.0526061 0.0783865,-0.0428828 0.129791,-0.116355 0.181247,-0.186114l-0.0587762 -0.0110376c-0.072267,0.122424 -0.184913,0.224083 -0.323281,0.255877 -0.00977783,-0.00120127 -0.0195596,-0.00486357 -0.0195596,-0.0146921 0,-0.00486747 0.0551178,-0.037914 0.0648995,-0.0452893 0.0526568,0 0.216704,-0.144487 0.246092,-0.199554l-0.0330465 -0.0073753c-0.0196103,0.0244777 -0.12859,0.134713 -0.197148,0.162846 0.015948,-0.0281361 0.0220674,-0.0685579 0.041627,-0.100403 0.0367595,-0.0073246 0.0881643,-0.0391659 0.123672,-0.0710151l-0.0281322 -0.00857657c-0.0355114,0.0171492 -0.0514594,0.0367634 -0.0857111,0.0404257 0.0134401,-0.0490023 0.0208115,-0.122424 0.026931,-0.176336 -0.00245713,-0.00611943 -0.0110337,-0.0208115 -0.0196103,-0.0208115 -0.0208115,-3.90021e-006 -0.0355075,0.0440841 -0.0452854,0.0587762 -0.015948,0.0245245 -0.0477464,0.0281868 -0.0795916,0.041627 -0.0636905,0.0281829 -0.0820488,0.111437 -0.159183,0.111437 -0.0575242,0 -0.111437,-0.0330504 -0.166504,-0.0330504 -0.0355075,0 -0.0918266,0.0134401 -0.126133,0.0232726 -0.0489984,-0.0551178 -0.097946,-0.224079 -0.140825,-0.291432 -0.0208115,-0.0330543 -0.0489477,-0.0612372 -0.05261,-0.100407 0,-0.00611943 0,-0.0550671 -0.00982854,-0.0550671 -0.0232687,0 -0.0355075,0.0661008 -0.0355075,0.0832539 -0.0489477,0.0697592 -0.0611865,0.144487 -0.0611865,0.213045 0,0.0526568 0.0183583,0.135911 0.0317984,0.194687 -0.0575242,-0.00611943 -0.105271,-0.0208115 -0.15547,-0.0734722l-0.0122389 0.0367127c0.0489477,0.0404218 0.130996,0.0734722 0.195892,0.0734722 0.0428321,0 0.0893734,-0.00491427 0.130996,-0.0183544 -0.0146921,0.0146921 -0.0293881,0.0293881 -0.0403711,0.0465412 -0.0367634,0.012235 -0.0747281,0.0220167 -0.113894,0.0220167 -0.0661008,0 -0.135915,-0.0514048 -0.186114,-0.0893734l-0.0183544 0.0367088c0.0257258,0.0416309 0.144487,0.0967448 0.194687,0.0967448 0.0379686,0 0.0746774,-0.00977783 0.110185,-0.0208115 -0.014696,0.0158973 -0.0196103,0.0330504 -0.0305933,0.0489477 -0.0184051,0.00245713 -0.0367595,0.00857657 -0.0551139,0.00857657 -0.142034,0 -0.162846,-0.0514048 -0.260792,-0.115099l-0.0208115 0.0232726c0.0538619,0.08325 0.139569,0.134706 0.237519,0.134706 0.0305894,0 0.0612333,-0.00611943 0.0845059,-0.012235l-0.003713 0.0464866c-0.023218,0.00491817 -0.0477425,0.0073753 -0.0710151,0.0073753 -0.14203,-3.90021e-006 -0.19223,-0.0452854 -0.279146,-0.122471l-0.0305933 0.0367595c0.0452893,0.0502035 0.108929,0.0820527 0.164051,0.119967 -0.0428321,0.0771813 -0.0967448,0.17267 -0.150607,0.241228 -0.029392,0.0073714 -0.0465412,0.0318452 -0.0465412,0.0624385 0,0.0465412 0.0281829,0.0954889 0.0281829,0.138372 0,0.0795877 -0.0698099,0.161637 -0.0857072,0.233857 -0.0587801,0.0367088 -0.118761,0.0575242 -0.118761,0.118758 0,0.0440841 0.0746774,0.0489984 0.106523,0.0514594 0.0110337,0 0.014696,0.0208115 0.014696,0.0330465 0,0.0208154 -0.086963,0.0979499 -0.086963,0.157931 0,0.100403 0.106523,0.165299 0.126133,0.262044 0.00245323,0.0146921 0.012235,0.0391659 0.0305894,0.0391659 0.030644,0 0.0661515,-0.0391659 0.0979967,-0.0440802 0.0697631,-0.0122389 0.100403,-0.0281361 0.117506,-0.0489516 0.0232726,-0.0293881 0.0906253,-0.145739 0.127338,-0.210635 0.0110337,-0.0208154 0.0465412,0.00245713 0.0355075,0.0514555 -0.010983,0.0489438 -0.0514087,0.113843 -0.0807968,0.154265 -0.0196064,0.00857657 -0.0440841,0.0343063 -0.0428282,0.0502035 0.00240643,0.0208115 0.0563191,0.012235 0.0893695,0.012235 0.127338,0 0.172623,-0.0881643 0.172623,-0.182452 0,-0.0158973 -0.0073207,-0.0452854 -0.0073207,-0.0563191 0,-0.0244738 0.0170985,-0.025679 0.0220128,-0.0342556 0.0110376,-0.041627 0.0208154,-0.0636905 0.0502035,-0.0894202 0.0134908,0.0257258 0.0220674,0.0575749 0.0220674,0.086963 0,0.0526568 -0.0318452,0.242433 -0.0759293,0.317111 -0.0563191,-0.00857657 -0.12859,0.0036623 -0.178794,0.0367634 -0.0428282,0.0281322 -0.0685579,0.068554 -0.0685579,0.119963 0,0.0648956 0.0514594,0.097946 0.110236,0.097946 0.010983,0 0.0244738,-0.00486357 0.0342517,-0.0073246 -0.0452854,0.0489516 -0.12242,0.380805 -0.12242,0.45794 3.90021e-006,0.0134401 0.0073246,0.0305933 0.00978173,0.0440841 -0.0465412,0.0355036 -0.111437,0.0538619 -0.170217,0.0538619 -0.0391659,0 -0.0734215,-0.0208115 -0.112638,-0.0208115 -0.39545,-3.90021e-006 -0.46526,0.696656 -0.46526,0.866873 0,0.0563191 0.0208115,0.112642 0.0208115,0.165303 0,0.149351 0.0355075,0.279142 0.192234,0.326889 0.0293881,-0.0514087 0.097946,-0.187319 0.10286,-0.243638 -0.0367595,-0.10286 -0.0783865,-0.0967448 -0.0967409,-0.165303 0.012235,-0.00611553 0.0171492,-0.0232687 0.0171492,-0.0318452 0,-0.0208115 -0.0330504,-0.0966941 -0.0330504,-0.130996 0,-0.10898 0.0734761,-0.422428 0.233861,-0.46526 0.0367127,0.0599814 0.178739,0.151812 0.246096,0.182405 -0.0122389,0.0318452 0.00491427,0.0698099 0.0196064,0.097946 -0.0514555,0.100403 -0.164094,0.249805 -0.155521,0.287769 0.00491817,0.0232726 0.014696,0.0317984 0.0232726,0.0317984 0.0171492,0 0.113843,-0.210588 0.173875,-0.292586l0.0293881 0.010983c-0.0343024,0.0673528 -0.115095,0.151859 -0.115095,0.217959l0.00120127 0.0208154c0.00611943,0.0036584 -0.0036623,0.0036584 0.0208154,0.0073207 0.0257258,0.0037091 0.113894,-0.206926 0.133454,-0.238724l0.0196103 0c-0.0036623,0.0599814 -0.0587801,0.118761 -0.0722202,0.1812 0.00611943,0.0146921 0.0073207,0.026931 0.023218,0.026931 0.0502035,-0.0587801 0.0575749,-0.140778 0.0845059,-0.209383l0.0171531 0c0,0.0539126 -0.0293881,0.10286 -0.0428789,0.154265 0.00611943,0.014696 0.0196103,0.0281868 0.0355075,0.0281868 0.0232687,-0.0563191 0.0257297,-0.128539 0.041627,-0.188571l0.0257258 -0.0208115 0 0.026931c0,0.0514555 -0.0073207,0.10286 -0.0196064,0.154265 0.00125197,0.00125197 0.00982854,0.014696 0.0146921,0.014696 0.015948,0 0.0281868,-0.0452893 0.0367634,-0.0599814 0.15547,0.122471 0.312193,0.203263 0.497102,0.27062 -0.290176,0.16159 -0.377139,0.202012 -0.434667,0.279142 -0.0967409,0.129795 -0.33426,0.631815 -0.362443,0.8583 -0.0232219,0.0612372 -0.0489516,0.122471 -0.0489516,0.179995 0,0.0893695 0.0636437,0.172674 0.110185,0.241232 0.100403,0 0.188571,-0.172674 0.191029,-0.254672 0.00120517,-0.056323 -0.0293881,-0.111437 -0.0539126,-0.16164 0.0367595,-0.0343024 0.0955396,-0.0244738 0.0955396,-0.143231 0,-0.0159519 -0.00491817,-0.0343063 -0.00857657,-0.0502035 0.00978173,-0.120013 0.193435,-0.391839 0.233857,-0.41877 0.16164,-0.107724 0.64405,-0.378344 0.881569,-0.378344 0.395497,0 0.744457,-0.097946 1.12526,-0.187316 0.102814,0.132198 0.308534,0.220366 0.43221,0.266907l-0.0257258 0.00611943c-0.228942,0.0391659 -0.614662,0.0906214 -0.690544,0.258331 -0.0367595,0.0367634 -0.0710151,0.0771345 -0.104116,0.116355 -0.153009,0.0232687 -0.162842,0.226481 -0.162842,0.344038l0.003713 0.0355075 0.0244738 0.00120517c0.0440841,0 0.0857072,-0.00852586 0.126078,-0.025679 0.257133,-0.110181 0.171422,-0.0416231 0.25101,-0.302415 0.15673,-0.110232 0.175131,-0.216754 0.547309,-0.216754 0.156726,0 0.399159,-0.0122389 0.405279,-0.166508l0.00491427 -0.117556c0.134706,0.0599814 0.596304,0.182456 0.596304,0.347755 0,0.0722202 -0.012235,0.144487 -0.012235,0.217909 0,0.292637 0.130996,0.640392 0.236314,0.913418 0.0208154,0.0539126 0.12242,0.124928 0.171422,0.156726l0 0zm-0.156726 -0.277945c-0.0833007,-0.175077 -0.192234,-0.525238 -0.18737,-0.848519 0.00125977,-0.0954889 0.0183583,-0.206926 -0.0416231,-0.287723 -0.106523,-0.143231 -0.378348,-0.168961 -0.629358,-0.295094 -0.164043,-0.0819981 -0.350157,-0.239976 -0.419971,-0.441988 0.0073753,0.00120517 0.0783865,0.00857657 0.154269,0.013444l0.00982854 0.0208115c-0.0367595,0.015948 -0.0661515,0.0392166 -0.0661515,0.0808436 3.90021e-006,0.0538619 0.0318491,0.0783397 0.0845098,0.0783397 0.0477425,0 0.0807929,-0.0208154 0.0807929,-0.0734722 0,-0.040375 -0.026931,-0.0697631 -0.056323,-0.0857111l-0.0073168 -0.0171024 0.170162 0.00977783 0.0073714 0.0514087c-0.0367595,0.00857657 -0.072267,0.0477425 -0.072267,0.0894202 0,0.0538619 0.0318452,0.0783358 0.0845059,0.0783358 0.0477425,0 0.0857072,-0.0208115 0.0857072,-0.0734722 0,-0.0403711 -0.0318452,-0.0783358 -0.0612333,-0.0942837l-0.00857657 -0.0428321 0.0465412 0.00978173c-0.0257297,-0.0428321 -0.0355075,-0.0954889 -0.0355075,-0.14815 0.138372,0.0551139 0.314654,0.101608 0.464055,0.101608 0.110185,0 0.195892,-0.014696 0.297551,-0.0587294 0.0305933,0.0171024 0.0330465,0.0636437 0.0330465,0.0942369 3.90021e-006,0.137167 -0.0379608,0.274279 -0.0379608,0.413852 0,0.0624892 0.120013,0.101659 0.120013,0.23145 0,0.121219 -0.0526607,0.244844 -0.0526607,0.368515 0,0.211844 -0.0453361,0.45182 0.14203,0.595106 -0.003713,0.0195557 -0.0893695,0.222823 -0.104065,0.230144l0 0zm-2.91046 -1.92232l-0.0036584 0.0832539c-0.0367127,0.015948 -0.0661008,0.0477932 -0.0661008,0.0894202 0,0.0538619 0.0317945,0.0783358 0.0844552,0.0783358 0.0477425,0 0.0857072,-0.0208115 0.0857072,-0.0734722 0,-0.0403711 -0.0317945,-0.0783358 -0.0611826,-0.0942837l0 -0.0807968 0.0734215 0.00245713 0.00245713 0.146948c0,0.135911 -0.0379647,0.266907 -0.139573,0.361191 -0.187316,0.0881682 -0.623238,0.252215 -0.762811,0.378348 -0.0612333,0.0550671 -0.107724,0.127334 -0.186114,0.291381 -0.0355036,0.0771345 -0.0404179,0.117556 -0.0404179,0.200806 0,0.0722709 -0.0244777,0.110185 -0.0930357,0.138372l-0.100403 0.0196064 0 -0.00245323c0,-0.228997 0.313448,-0.784879 0.364857,-0.837489 0.144487,-0.146944 0.444496,-0.25101 0.478747,-0.306124 -0.0893695,-0.155525 -0.19223,-0.280402 -0.19223,-0.527699 0,-0.1482 0.0306401,-0.314704 0.0930825,-0.439581 0.0318452,-0.0208154 0.233857,-0.107778 0.268112,-0.115099 0,0.12242 0.015948,0.309786 0.0612333,0.379549 -0.0379647,0.10286 -0.0893695,0.21184 -0.117556,0.27062l-0.0134401 0.0281361c0.0110337,0.00857267 0.0257297,0.00857267 0.0404218,0.00857267l-0.0037091 0.0832539c-0.0367127,0.015948 -0.0661008,0.0477932 -0.0661008,0.0894202 0,0.0538619 0.0318452,0.0783358 0.084502,0.0783358 0.0477464,0 0.0856604,-0.0208115 0.0856604,-0.0734722 0,-0.0403711 -0.0317945,-0.0783358 -0.0611826,-0.0942837l0.00611943 -0.082002 0.178739 -0.00125197zm-0.363652 -1.35174c-0.0183544,0.0269349 -0.0293881,0.0624424 -0.0293881,0.0954928 0,0.0795877 0.0759293,0.099198 0.14203,0.10286 0.0379647,-0.0208154 0.0551178,-0.0514048 0.0636905,-0.10286 0.041627,0.00982854 0.071019,0.0184051 0.111441,0.0306401 -0.0563191,0.10286 -0.0918305,0.252215 -0.115099,0.367314 -0.351413,0.149402 -0.547305,0.255924 -0.787336,0.255924 -0.100352,0 -0.171368,-0.0122857 -0.171368,-0.144487 0,-0.151859 0.0942369,-0.301213 0.127334,-0.450615 0.0379179,-0.0281361 0.0832539,-0.10281 0.0832539,-0.150607 0.041627,0.015948 0.0869123,0.0269817 0.132202,0.0269817 0.0220674,0 0.0440841,-0.00245713 0.0661476,-0.00857657 -0.0416231,0.0317984 -0.0845059,0.0624385 -0.0845059,0.118761 0,0.0624385 0.0832539,0.144487 0.145743,0.144487 0.0746774,0 0.132202,-0.0955396 0.127334,-0.14203 -0.00125197,-0.0171531 -0.0134908,-0.0269817 -0.0196103,-0.0428789 -0.0183544,-0.0257297 -0.0452854,-0.0612372 -0.08325,-0.0844591 0.0195596,-0.00982854 0.156726,-0.0379647 0.208131,-0.0489945l0.08325 0.0330465zm1.17912 -0.162842c-0.0734722,-0.0991512 -0.149351,-0.170162 -0.222823,-0.259586 -0.072267,-0.0869123 -0.127338,-0.194687 -0.127338,-0.322025 3.90021e-006,-0.0930318 0.0305972,-0.210588 0.0502035,-0.30362 -0.00125197,0.0355075 0.0158973,0.104065 0.0636437,0.104065 0.0134908,0 0.10898,-0.0673528 0.10898,-0.121215 0,-0.144491 -0.0685579,-0.168965 -0.0685579,-0.199605 0,-0.0502035 0.0391698,-0.132202 0.0391698,-0.166504 0,-0.0110376 -0.0036623,-0.0257297 -0.0036623,-0.0391698 0,-0.0122389 0.014696,-0.0244738 0.026931,-0.0293881 0.0110337,0.0208115 0.0134908,0.0404218 0.0134908,0.0599814 3.90021e-006,0.0453361 -0.00982854,0.0526568 -0.00982854,0.10286 0,0.0281868 0.00982854,0.0722202 0.0367595,0.0722202 0.0440841,0 0.127338,-0.0783358 0.127338,-0.126082 0,-0.0502035 -0.0331011,-0.107778 -0.0331011,-0.157978 0,-0.029392 0.0416777,-0.151812 0.0771852,-0.151812 0.00977783,0 0.0220167,0.0232726 0.0330504,0.0232726 0.0526607,0 0.101604,-0.0330504 0.10286,-0.086963 0,-0.00978173 -0.00617014,-0.0844552 -0.00617014,-0.101608 0.00983244,0.0171492 0.0489984,0.0906253 0.0489984,0.111437 3.90021e-006,0.0403711 -0.0587762,0.151812 -0.0587762,0.173875 0,0.0330504 0.0330465,0.040375 0.0599814,0.040375 0.112689,-3.90021e-006 0.113894,-0.0636437 0.118808,-0.149355 0.00120517,-0.030644 0.00240643,-0.068554 0.0391698,-0.068554 0.0146921,-3.90021e-006 0.026931,0.0036584 0.0452854,0.0036584 0.041627,0 0.0832539,-0.0379647 0.0832539,-0.104065 0,-0.0673567 -0.0342556,-0.113894 -0.0342556,-0.179995 3.90021e-006,-0.026931 0.00486747,-0.0502035 0.025679,-0.0710151 0.0502035,-0.0502035 0.0979967,-0.105317 0.101659,-0.17267l0.0134401 -0.0428321c0.0037091,0.00611943 0.00982854,0.0195596 0.00982854,0.0342556 0,0.0759293 -0.0392166,0.179995 -0.0392166,0.208178 0,0.0624385 0.0440802,0.101608 0.0808436,0.134659 0.0281361,0.0245245 0.0428282,0.0477932 0.0428282,0.154316 0,0.0905746 -0.0734722,0.170166 -0.0734722,0.237519 3.90021e-006,0.0599814 0.0514555,0.11756 0.116351,0.11756 0.0367127,-3.90021e-006 0.0599814,-0.107778 0.0710151,-0.134709l0.00486747 -0.0196142c0.0343063,0.0795955 0.10898,0.202066 0.10898,0.293893 0,0.0648956 -0.0281361,0.116304 -0.0550671,0.173879 -0.00982854,-0.0600321 -0.10898,-0.172674 -0.183657,-0.172674 -0.00982854,0 -0.0196103,0.00245713 -0.0281829,0.00611943 -0.026931,-0.129795 -0.0722202,-0.243638 -0.20693,-0.243638l-0.0244699 -0.0244738 -0.0330543 0.0244699c-0.101655,0.00611943 -0.204519,0.0893734 -0.224075,0.20081 -0.0122389,-0.00491817 -0.0281868,-0.00857267 -0.0490023,-0.00857267 -0.13345,-3.90021e-006 -0.221618,0.145689 -0.221618,0.280398 0,0.010983 0.00491427,0.0575242 0.0073714,0.0673528 -0.0661515,0.0330465 -0.233857,0.0146453 -0.233857,0.304872 0,0.100403 0.0477425,0.178743 0.106523,0.249758 0.0783358,0.0942837 0.182401,0.184909 0.209383,0.287723l-0.0367634 -0.00978173zm-1.9003 -0.549762c-0.0795409,-0.0220206 -0.160388,-0.0379647 -0.243638,-0.0379647 -0.0551178,-3.90021e-006 -0.120013,0.00611553 -0.175081,0.0171492 0.00857657,-0.0502035 0.0391659,-0.115099 0.0697592,-0.16164 -0.0036584,-0.0587294 -0.0195596,-0.117506 -0.0195596,-0.176282 0,-0.0710151 0.138372,-0.230198 0.193439,-0.304876 0.015948,0.00245713 0.0318452,0.0036623 0.0477425,0.0036623 0.0392205,0 0.0795916,-0.0073207 0.113894,-0.0220167 0.00246103,0.0550632 0.116304,0.291385 0.153064,0.291385l0.025679 -0.0232765c-0.0477425,-0.117552 -0.129795,-0.190974 -0.129795,-0.324478 0,-0.15056 0.127385,-0.254672 0.279197,-0.254672 0.0183544,0 0.0587801,0.00857657 0.0722202,0.0220674l-0.0403711 0.0355036c-0.0171531,-0.00857267 -0.0490023,-0.0159441 -0.0698138,-0.0159441 -0.115099,0.00245713 -0.197148,0.0955396 -0.197148,0.23757 0,0.08325 0.0343063,0.187316 0.123676,0.224079l0.0171531 -0.0257297c-0.0343063,-0.0514555 -0.0942876,-0.086963 -0.0942876,-0.214297 0,-0.100407 0.0612372,-0.177538 0.168961,-0.177538 0.0110337,0 0.0245245,0 0.0343063,0.00611943l-0.041627 0.0477932c-0.0587762,0.00120517 -0.12859,0.0648956 -0.12859,0.117506 0,0.0489984 0.0526607,0.177538 0.0918305,0.197148l0.0281829 -0.0367127c0,-0.0134908 -0.026931,-0.0404218 -0.0501996,-0.0771813 0.0734722,-0.0440373 0.110181,-0.306077 0.255873,-0.306077l0.0184051 0.0036584c-0.0257258,0.0538619 -0.0257297,0.113898 -0.0343024,0.165303 -0.0710151,0.0440841 -0.216708,0.468969 -0.255877,0.526494 -0.0440802,0.0648956 -0.155521,0.236314 -0.213096,0.263249l3.90021e-006 0zm0.666113 0.521626c-0.120013,-0.0918305 -0.368566,-0.300008 -0.468969,-0.408988 0.0355075,-0.0293881 0.0685579,-0.0599814 0.110185,-0.0807929 0.0820488,-0.00246103 0.154316,-0.0379647 0.199605,-0.106523 0.0697592,-0.0502035 0.0918266,-0.124877 0.0918266,-0.206926 0,-0.100407 -0.0698099,-0.165303 -0.146944,-0.173879 0.0257297,-0.0599814 0.0514555,-0.137112 0.0575749,-0.210584 0.0195596,0.0220128 0.0281361,0.0391659 0.0550671,0.0551139 0.0331011,0.121219 0.144487,0.309739 0.191029,0.321974 -0.0036623,0.0392166 -0.0036623,0.0539165 -0.0036623,0.0771852 0,0.121215 0.0648956,0.204469 0.128539,0.274232 -0.00486357,0.0232687 -0.0073207,0.0440802 -0.0073207,0.0636905 0,0.0783358 0.0355075,0.128539 0.0673021,0.189777 -0.00120517,0.0305894 -0.00120517,0.0636944 -0.00120517,0.0942837 -0.0391659,0.0244738 -0.235062,0.112642 -0.273027,0.111437l0 0zm0.706492 1.56233l0.19223 0.00491427 -0.0037091 0.0844552c-0.0367127,0.0159519 -0.0661008,0.0477464 -0.0661008,0.0893734 0,0.0539126 0.0318452,0.0783865 0.0845059,0.0783865 0.0477464,0 0.0857072,-0.0208115 0.0857072,-0.0734722 0,-0.0404218 -0.0318452,-0.0783358 -0.0612333,-0.0942837l0.00611943 -0.0832539 0.230194 0.00491427 -0.00491427 0.0869123c-0.0367088,0.0158973 -0.0661008,0.0477464 -0.0661008,0.0893734 0,0.0538619 0.0318491,0.0783865 0.0844552,0.0783865 0.0477464,0 0.0857111,-0.0208154 0.0857111,-0.0734722 0,-0.0404257 -0.0317984,-0.0783904 -0.0611865,-0.0942876l0.00611943 -0.0869123 0.211793 0.00486357 -0.0036623 0.0820488c-0.0367088,0.0158973 -0.0661008,0.0477464 -0.0661008,0.0893734 0,0.0538619 0.0317945,0.0783865 0.0844552,0.0783865 0.0477464,0 0.0857111,-0.0208154 0.0857111,-0.0734722 0,-0.0404257 -0.0317984,-0.0783904 -0.0611865,-0.0942876l0.00611943 -0.0820488 0.210588 0.00491427 -0.00245713 0.0599853c-0.0367088,0.015948 -0.0661008,0.0477425 -0.0661008,0.0893695 0,0.0539126 0.0317984,0.0783865 0.0844552,0.0783865 0.0477464,0 0.0857111,-0.0208115 0.0857111,-0.0734722 0,-0.0404218 -0.0318452,-0.0783358 -0.0611865,-0.0942837l0.00486357 -0.0587801 0.175084 0.003713 -0.00120517 0.0208115c-0.0367127,0.0158973 -0.0661008,0.0452854 -0.0661008,0.0869123 0,0.0538658 0.0317945,0.0783904 0.0844552,0.0783904 0.0477464,0 0.0857072,-0.0208661 0.0857072,-0.0734761 3.90021e-006,-0.0404218 -0.0318452,-0.0759293 -0.0612333,-0.0918266l0.00245713 -0.0196103 0.0575749 0c0.014696,0.0648956 0.0318452,0.116304 0.0550671,0.156726 -0.19464,0.0918266 -1.19868,0.303671 -1.3689,0.303671 -0.0428282,0 -0.0857072,0.00245713 -0.128539,0.00245713 0.0404218,-0.0624892 0.10898,-0.155521 0.12242,-0.240027 0.0355114,-0.00611943 0.0686086,-0.037914 0.0686086,-0.0746774 0,-0.0305933 -0.0208115,-0.0697592 -0.0489984,-0.0869123l-0.00120127 -0.0881682zm1.7521 -0.27674c0.00491817,-0.0416231 -0.00245713,-0.08325 -0.00245713,-0.124877 0,-0.08325 0.00857657,-0.166504 0.0196064,-0.249754 0.0734761,0.0195596 0.197148,0.0367088 0.27303,0.0367088 0.126133,0 0.205721,-0.0134908 0.319568,-0.0648956 0.0845059,0.127334 0.127334,0.264501 0.176333,0.408937 -0.097946,0.0783865 -0.228942,0.100407 -0.352618,0.100407 -0.150607,-3.90021e-006 -0.297551,-0.0391698 -0.433462,-0.106523l0 -3.90021e-006zm-0.261993 -0.761556l0.0158973 0.0452893c0.00245713,0.014696 0.0073207,0.0305933 0.0073207,0.0452854 3.90021e-006,0.115099 -0.190978,0.536326 -0.274228,0.619576 -0.0428789,-0.0343024 -0.0489984,-0.0698099 -0.0955396,-0.10286 -0.026931,0.0906253 -0.0819981,0.175081 -0.144487,0.222874 -0.101608,0.0771345 -0.232605,0.0918305 -0.307282,0.0918305 -0.127334,0 -0.352669,-0.10898 -0.4298,-0.434667 -0.025679,0.0171024 -0.0636437,0.0636437 -0.0857111,0.0771345 -0.0881682,-0.126133 -0.107724,-0.286517 -0.107724,-0.442038 0,-0.0636437 0.00857267,-0.203267 0.0538619,-0.248553l0.0501996 -0.0036623c0.014696,0.144487 -0.0146921,0.285265 0.0477464,0.422428 0.0318452,0.0697592 0.104065,0.123676 0.130996,0.186114 0.0551178,0.217909 0.135911,0.331803 0.385715,0.331803 0.176336,0 0.364857,-0.1665 0.461602,-0.304872 0.0563191,-0.0795916 0.128539,-0.258381 0.177534,-0.342836 0.0428828,-0.0452893 0.0599853,-0.0954889 0.0636944,-0.16776 0.00978173,0.00245713 0.0208115,0.0073714 0.0342556,0.0073714 0.00491427,0 0.00977783,0 0.015948,-0.00245323l0 -3.90021e-006zm-0.75303 0.661152c-0.102864,0 -0.172623,-0.0514048 -0.243689,-0.150607 -0.107728,-0.149351 -0.249758,-0.411394 -0.252215,-0.47629 0.0612372,0.0636905 0.216708,0.10286 0.310991,0.0734722 0.0379686,0.0820488 0.160439,0.306128 0.274282,0.306128 0.101608,0 0.254672,-0.171418 0.292637,-0.260792 0.0563191,0.0342556 0.0514048,0.05261 0.124877,0.05261 0.0171531,0 0.0404218,-0.00120517 0.0489984,-0.0036584 -0.0232687,0.0881643 -0.0575749,0.140825 -0.12859,0.209383 -0.115095,0.111437 -0.295043,0.249754 -0.427296,0.249754l3.90021e-006 0zm0.0208115 1.38239c-0.0208115,0 -0.0612372,-0.0220674 -0.0734722,-0.0391698 0.1163,-0.209383 0.546104,-0.309786 0.772589,-0.309786 0.0465412,0.0195596 0.0857111,0.0305933 0.124928,-0.00611943l3.90021e-006 -0.00857657c-0.197152,-0.104065 -0.480007,-0.198349 -0.548565,-0.318363 0.120017,-0.0171531 0.248553,-0.0550671 0.348956,-0.100403 0.0869162,0.097946 0.211844,0.206926 0.319568,0.280398 0.0257297,0.0343024 0.0257297,0.10286 0.0257297,0.117556 0,0.160385 -0.225284,0.154265 -0.34284,0.154265 -0.214297,0 -0.389378,-0.0134908 -0.508139,0.202012 -0.0257258,0.0134908 -0.0906214,0.0281868 -0.118758,0.0281868l0 0zm-1.99699 -0.945263c0.00852196,-0.0379647 -0.00246103,-0.0844552 -0.0122896,-0.121219 0.0220674,-0.0183544 0.0551178,-0.0452854 0.0551178,-0.0697592 0,-0.0416231 -0.0110337,-0.0942837 -0.0502035,-0.127334 0.0158973,-0.0269817 0.0330504,-0.0477971 0.0330504,-0.0808475 0,-0.0110337 -0.00245713,-0.0220167 -0.00857657,-0.0305933 0.0196103,-0.0196103 0.0331011,-0.0391659 0.0331011,-0.0673528 0,-0.0122389 -0.00245713,-0.0281322 -0.0073714,-0.0391659 0.0783865,-3.90021e-006 0.293838,-0.0477464 0.368566,-0.0771345 -0.0367634,0.14203 -0.0685579,0.257125 -0.0685579,0.405275 0,0.119967 0.0857072,0.397907 0.168961,0.484871 -0.140825,-0.030644 -0.391835,-0.193486 -0.511798,-0.27674l0 0zm-0.921995 0.273077c-0.0146921,-0.0489984 -0.0183544,-0.100403 -0.0183544,-0.151859 0,-0.182456 0.112642,-0.768931 0.40648,-0.768931 0.132248,0 0.139573,0.0208154 0.274282,-0.0220167 0.00611553,0.0391698 0.0232687,0.0758825 0.0440802,0.108984 -0.0073714,0.0220128 -0.0110337,0.0477425 -0.0110337,0.0722163 0,0.0514048 0.0257297,0.105317 0.0722202,0.126133 -0.037914,0.010983 -0.123625,0.0807929 -0.134659,0.110185 -0.110181,-0.0452893 -0.137167,-0.0795916 -0.203263,-0.170217 -0.00857657,-0.010983 -0.0244738,-0.0293881 -0.0391698,-0.0293881 -0.157978,0 -0.296295,0.394292 -0.296295,0.520374 0,0.0477932 0.0342517,0.0820488 0.0403711,0.129791 -0.0330504,0.0392205 -0.0942837,0.0648995 -0.134659,0.0747281l0 0zm3.76139 -0.329396c-0.0954928,-0.014696 -0.188575,-0.0257297 -0.285316,-0.0257297 -0.599966,0 -1.2048,-0.0256751 -1.79744,-0.037914 0.0673528,-0.0379647 0.264501,-0.113894 0.32814,-0.132248 0.184913,0.026931 0.386921,0.0171492 0.571834,0.0171492 0.0857072,0.0697631 0.171418,0.100403 0.280398,0.100403 0.117506,0 0.219165,-0.0343024 0.299958,-0.0747242 0.115103,0 0.262044,-0.0073207 0.378344,-0.0073207 0.12859,-3.90021e-006 0.231404,0.068554 0.34284,0.179995l-0.118758 -0.0196103zm0.424835 -1.48645c0.0918812,0.0404218 0.200806,0.0710151 0.200806,0.199605 -0.00120127,0.269364 -0.306073,0.383262 -0.472581,0.383262 -0.0808436,0 -0.188571,-0.0551178 -0.200806,-0.149402 0.0036623,-0.0073246 0.00486357,-0.014696 0.00486357,-0.0220167 0,-0.0196103 -0.012235,-0.0379686 -0.0330504,-0.0465412 -0.0146921,0.0146921 -0.0134401,0.026931 -0.0342517,0.026931 -0.0416777,0 -0.0906253,-0.0171531 -0.0906253,-0.0661008 0,-0.0134908 0.00491427,-0.0281868 0.0073207,-0.041627 0.0392205,-0.0208622 0.139624,-0.0220674 0.188571,-0.0269817 0.0477464,0.0489984 0.153064,0.106523 0.221622,0.106523 0.0551178,0 0.195892,-0.105267 0.195892,-0.157927 0,-0.0514048 -0.0538619,-0.113843 -0.14203,-0.14815l0.154269 -0.0575749zm-1.10931 -0.0538619c-0.0256751,-0.014696 -0.0489477,-0.0195596 -0.0795877,-0.0195596 -0.00978173,0 -0.0208154,0.00120517 -0.0317984,0.0036623 -0.015948,-0.0196103 -0.0220674,-0.0599814 -0.0220674,-0.0857111 3.90021e-006,-0.17879 -0.00611943,-0.355075 -0.041627,-0.531408l0.00491817 -0.040375c0.041627,-0.0648956 0.117552,-0.132248 0.19955,-0.132248 0.110236,0 0.189777,0.144487 0.20081,0.227741 -0.165299,0.135911 -0.204469,0.388122 -0.219165,0.584018l-0.0110337 -0.00611943zm-0.228939 0.030644l-0.0220713 -0.0134908c-0.05261,-0.16164 -0.156722,-0.244894 -0.224028,-0.352618 -0.0379647,-0.0599814 -0.0648956,-0.12859 -0.0648956,-0.222874 0,-0.0599853 0.0771345,-0.162846 0.157927,-0.162846 0.238775,0 0.194691,0.419971 0.210588,0.622033 0.00246103,0.0342517 0.0073714,0.0624385 0.0146921,0.0807968 -0.00120127,0.0343024 -0.0464866,0.0440841 -0.0722163,0.0489984l3.90021e-006 0zm0.271818 -0.00611943c0.0183583,-0.0980006 0.0232726,-0.184909 0.0379647,-0.262044 0.0355114,-0.178794 0.192234,-0.372228 0.373434,-0.372228 0.0661008,0 0.113843,0.0599814 0.113843,0.124881 0,0.260788 -0.440783,0.282855 -0.499512,0.525288l-0.0257297 -0.0158973zm-1.08117 1.26969c0.0673528,-0.303671 0.0808436,-0.617119 0.150603,-0.919534l0.0477464 0.00120127c-0.0452854,0.0992019 -0.0489477,0.215502 -0.0489477,0.323281 0,0.0734722 0.0697592,0.423633 0.153013,0.423633 0.015948,0 0.0392166,-0.0428789 0.0600321,-0.0538658 0.00486357,0.0367127 0.111386,0.211793 0.144487,0.25342 -0.0942837,-3.90021e-006 -0.442038,0 -0.506934,-0.0281361l0 0zm1.1387 -1.22807c0.0734722,-0.251006 0.510596,-0.269364 0.510596,-0.554677 0,-0.0832539 -0.0845098,-0.14815 -0.159183,-0.164047 0.00245713,-0.0379686 0.00491427,-0.132252 0.00491427,-0.175131 0,-0.0550671 -0.0281868,-0.216704 -0.198349,-0.217909 -0.0379647,-0.0918305 -0.030644,-0.263249 -0.181251,-0.263249 -0.134659,0 -0.173825,0.134659 -0.190978,0.211793 -0.0146921,-0.00486747 -0.0293881,-0.00486357 -0.0440841,-0.00486357 -0.105317,-3.90021e-006 -0.197148,0.111386 -0.197148,0.213045 0,0.0464866 0.003713,0.0722163 0.00491427,0.124877 -0.0073675,-0.00125587 -0.0208115,-0.0036623 -0.0281829,-0.0036623 -0.0587294,0 -0.203217,0.0954889 -0.203217,0.213045 0,0.0991512 0.0355075,0.177538 0.0819981,0.246096 0.0747281,0.112642 0.191029,0.21184 0.213045,0.330602l-0.0330504 -0.003713c-0.0317945,-0.123625 -0.139573,-0.213045 -0.216704,-0.318312 -0.0465412,-0.0636944 -0.0820488,-0.133454 -0.0820488,-0.219165 0,-0.303671 0.170213,-0.235113 0.236314,-0.300008 -0.0036584,-0.0220167 -0.00611943,-0.0477425 -0.00611943,-0.0746774 0,-0.10898 0.0367634,-0.237519 0.168961,-0.237519 0.0281868,0 0.0526607,0 0.0795916,0.00857657 0.0110376,-0.0367634 0.0208154,-0.210639 0.222827,-0.210639 0.1482,0 0.177588,0.145743 0.195943,0.259586 0.013444,-0.00120127 0.025679,-0.00245713 0.0379647,-0.00245713 0.134659,0 0.19464,0.126133 0.19464,0.253467 0,0.0440841 -0.0073207,0.0710151 -0.0208154,0.140829 0.0942876,0.0452854 0.153064,0.0942837 0.153064,0.209332 0,0.262044 -0.2975,0.286517 -0.429749,0.455479 -0.0232687,0.030644 -0.0477464,0.0722709 -0.0538658,0.111441l-0.0600282 -0.02814zm-1.49132 1.36644c0.171418,-0.318363 0.357532,-0.706488 0.357532,-1.0738l0.097946 0.0109791c-0.0220167,0.228993 -0.0869123,0.675899 -0.155521,0.907299 -0.0428282,0.0599814 -0.242433,0.130996 -0.299961,0.155521l3.90021e-006 0zm-1.29422 -1.39217c-0.0171024,-0.00977783 -0.117506,-0.226536 -0.117506,-0.243638 0,-0.0648956 0.0918266,-0.120013 0.0918266,-0.194687 0,-0.00857657 -0.00491427,-0.014696 -0.00857657,-0.030644 0.0305933,-0.0158973 0.0661008,-0.0195596 0.100403,-0.0195596 0.040375,0 0.170166,0.00245713 0.203217,0.0171531l-0.0134401 0.0391659c0.0244738,0.025679 0.0477425,0.0599853 0.0452854,0.0930357 -0.00120127,0.0183544 -0.00977783,0.0428789 -0.0232687,0.0759293 -0.0293881,0.0746735 -0.101608,0.203263 -0.164047,0.236314 -0.0122389,-0.0183583 -0.0110337,-0.0808436 -0.00983244,-0.101659l-0.0158934 -0.00611943c-0.0232726,0.0514555 -0.0220206,0.124932 -0.0881682,0.134709l0 0zm3.46875 1.45827c-0.0514048,-0.0489477 -0.105267,-0.100403 -0.166504,-0.137116l3.90021e-006 -0.0355075c0,-0.224079 0.0575203,-0.459188 0.106519,-0.6771 0.0244738,0.0183544 0.0710151,0.0330504 0.10286,0.0330504l0.00246103 -0.00125197c-0.0245245,0.202062 -0.0355114,0.404074 -0.0355114,0.607337 3.90021e-006,0.0759332 0.00611943,0.153064 0.00978173,0.228942l-0.0196103 -0.0183544zm-0.203217 -0.137116c-0.0355036,-0.0171531 -0.0881643,-0.0293881 -0.127334,-0.0293881 -0.105317,0 -0.221622,0.00857657 -0.326939,0.0134401 0.0428321,-0.0514048 0.0918266,-0.105271 0.113843,-0.167705 0.015948,0.0195557 0.0661515,0.0771306 0.0845059,0.0918266 0.204469,-0.204519 0.230198,-0.411394 0.318367,-0.674694l0.0440802 0.0404218c-0.0501996,0.22528 -0.106523,0.471427 -0.106523,0.701574l0 0.0245245zm-0.394288 -1.25992c0.00125197,-0.0404218 0.0257258,-0.0673528 0.0489945,-0.100403 0.105271,-0.146944 0.453021,-0.17267 0.453021,-0.527746 0,-0.0697631 -0.0771306,-0.135911 -0.151808,-0.172623 0.00978173,-0.0379686 0.0146921,-0.0759293 0.0146921,-0.112642 3.90021e-006,-0.015948 -0.00245713,-0.0489984 -0.00982854,-0.0648956 0.0257297,0.0073207 0.0465412,0.0171531 0.0624385,0.0171531 0.0918773,-3.90021e-006 0.0477932,-0.0979967 0.0783865,-0.156726 0.0159012,0.0146921 0.0355075,0.107728 0.0355075,0.133454 3.90021e-006,0.0526607 -0.0501996,0.0881682 -0.0501996,0.143235 0,0.0477425 0.0624385,0.0698099 0.0954889,0.0698099 0.0171531,0 0.026931,-0.0146921 0.0404218,-0.0257258 0.00857657,0.0440802 0.012235,0.0893695 0.012235,0.134709 3.90021e-006,0.123621 -0.19223,0.38075 -0.370973,0.465256 -0.135907,0.0636437 -0.213045,0.126133 -0.227737,0.210588l-0.0306401 -0.013444zm0.241228 0.1812c-0.0343024,0 -0.101659,-0.0220635 -0.101659,-0.0648956l0.00245713 -0.0134908c0.0734722,-0.00120517 0.171418,-0.0501996 0.171418,-0.132198 3.90021e-006,-0.0208154 -0.0146921,-0.0869669 -0.0281361,-0.100407 0.040375,-0.0404218 0.0918305,-0.0918266 0.140778,-0.121215 3.90021e-006,0.135911 0.155521,0.0208115 0.155521,0.254672 0,0.143231 -0.237519,0.177534 -0.340383,0.177534l3.90021e-006 0zm1.50355 0.299958c0.0673567,-0.00611553 0.146944,-0.0195557 0.216758,-0.0195557 0.165303,0 0.293838,0.127334 0.37343,0.292633 0.0893695,0.187319 0.130996,0.423633 0.146944,0.582817 0.0158973,0.159183 0.0599814,0.30979 0.134659,0.443244 0.0281868,0.0514048 0.176333,0.263245 0.22528,0.263245 0.0110337,0 0.0184051,-0.00857657 0.0293881,-0.0110337 -0.0171453,-0.0171492 -0.0318452,-0.0318452 -0.0440841,-0.0452854 -0.0758747,-0.0820488 -0.132198,-0.159183 -0.173825,-0.23757 -0.0698099,-0.130996 -0.101659,-0.26445 -0.127385,-0.43221 -0.0281361,-0.192234 -0.05261,-0.391784 -0.160388,-0.584018 -0.0819942,-0.155521 -0.18611,-0.301213 -0.407732,-0.311042 -0.0746774,-0.0036623 -0.173825,0.0037091 -0.236318,0.0477971l0.0232726 0.0109791zm-2.0313 0.258385c-0.15547,-0.118761 -0.224028,-0.238775 -0.224028,-0.35387 0,-0.0551178 0.0171024,-0.110185 0.0305933,-0.162846l0.0685579 -0.0073714c-0.00611943,0.0428789 -0.00978173,0.0833007 -0.00978173,0.121215 3.90021e-006,0.117556 0.0367127,0.216758 0.155474,0.298807 0.124928,-0.0269817 0.199601,-0.27062 0.222874,-0.346549l0.0428321 0.0037091c-0.00978173,0.188521 -0.0636476,0.429753 -0.286521,0.446906l0 0zm-0.126082 -1.51705c-0.00611553,-0.0184051 -0.0404218,-0.0465373 -0.0808436,-0.0771306 -0.00120517,-0.0465451 -0.00240643,-0.0881682 -0.00240643,-0.124928 0,-0.119967 0.068554,-0.184862 0.165248,-0.184862 0.0857111,0 0.17879,0.0954889 0.17879,0.179995l3.90021e-006 0.0403711c-0.112642,0.00245713 -0.252215,0.134709 -0.252215,0.181251l-0.00857657 -0.014696zm0.493443 0.0722202c-0.015948,-0.0661008 -0.0551139,-0.12242 -0.0930825,-0.177538 -0.0208115,-0.0305933 -0.068554,-0.0391659 -0.0942837,-0.0587762l3.90021e-006 -0.0342556c0,-0.0612372 0.0942798,-0.134709 0.182448,-0.134709 0.104065,0 0.146944,0.115099 0.146944,0.188575 0,0.0489477 -0.00611553,0.117552 -0.00857657,0.166504 -0.0428789,0.0134869 -0.097946,0.0305894 -0.133454,0.0501996l0 0zm-0.974648 0.899923c-0.0599814,0.0318491 -0.102864,0.0416777 -0.153064,0.0416777 -0.20693,0 -0.542395,-0.121215 -0.776252,-0.262044 -0.203267,-0.12242 -0.317161,-0.269364 -0.489785,-0.440783 -0.0906214,-0.0906253 -0.263245,-0.135911 -0.411394,-0.135911 -0.0759293,-3.90021e-006 -0.129795,0.00857267 -0.16776,0.0196064 -0.0819981,0.0244738 -0.0918266,0.0624385 -0.0991473,0.0624385 -0.0159519,0 -0.0269349,-0.0281829 -0.0269349,-0.0416231 3.90021e-006,-0.00491817 0.00241033,-0.00983244 0.0073246,-0.0134908 0.0845059,-0.0526646 0.191029,-0.0612372 0.287723,-0.0612372 0.156722,-3.90021e-006 0.302465,0.0367595 0.42368,0.143282 0.0477464,0.0428321 0.0905746,0.0966941 0.137116,0.139573 0.310991,0.286517 0.6771,0.546104 1.11909,0.546104 0.0404218,0 0.0795916,-0.015948 0.118808,-0.0306401l0.0305972 0.0330465zm1.62848 -0.209332c-0.030644,-0.00857657 -0.0747281,-0.0232687 -0.100403,-0.0416231 -0.0134908,-0.047801 -0.0343063,-0.0955435 -0.0698138,-0.129795 0.0183583,-0.00983244 0.0281868,-0.0330504 0.0318491,-0.0526607 0,-0.015948 -0.0183583,-0.0232687 -0.0183583,-0.0379647 0.00120517,-0.0587762 0.0942876,-0.217959 0.216708,-0.217959 0.0477464,-3.90021e-006 0.126133,0.0073714 0.135911,0.0673528 -0.0073714,0.0281868 -0.0196103,0.0587801 -0.0391698,0.0807968l-0.0293881 0c-0.0893695,0 -0.153064,0.00982854 -0.153064,0.118808 0,0.138317 0.129795,0.14203 0.129795,0.168961l-0.104065 0.0440841zm1.03092 0.538732c0.0698099,-0.00611943 0.13345,-0.0122389 0.194687,-0.00245713 0.153064,0.0257258 0.247348,0.14203 0.312243,0.270616 0.0930357,0.186064 0.124881,0.422381 0.124881,0.598714 0,0.132252 0.0575242,0.317111 0.150607,0.454277 0.0428321,0.0624385 0.0918266,0.115099 0.146944,0.14815l0.0269349 -0.015948 -0.00612333 -0.0220167c-0.0526568,-0.0257297 -0.099198,-0.0771345 -0.138368,-0.142034 -0.0807929,-0.133454 -0.129795,-0.323226 -0.135911,-0.446902 0,-0.198349 -0.0428828,-0.4298 -0.138372,-0.60488 -0.0746735,-0.135915 -0.175077,-0.254672 -0.340379,-0.275484 -0.0305933,-0.0036623 -0.0624385,-0.00491427 -0.097946,-0.00120517 -0.026931,0.00240643 -0.0906253,0 -0.107778,0.0220167l0.00858047 0.0171531zm-0.631764 0.892599c-0.116355,0 -0.38201,-0.0440802 -0.475089,-0.110232l-0.00491427 -0.0881175c0.160435,0.041627 0.249805,0.0979499 0.42368,0.0979499 0.102814,-3.90021e-006 0.328144,-0.0208154 0.382006,-0.116355 0.0122389,0.0122896 0.0244777,0.0392205 0.0244777,0.056323 0,0.115095 -0.221622,0.160435 -0.350161,0.160435l0 -3.90021e-006zm-1.40194 -0.844856c-0.0845098,-0.0648956 -0.118812,-0.156722 -0.118812,-0.257129 0,-0.0305933 0.00245713,-0.0660969 0.00982854,-0.10286 -0.00125197,0 0.0611865,-0.0220167 0.0771345,-0.0220167 0.0257297,0 0.154265,0.0795916 0.205674,0.0881682 -0.025679,0.0966902 -0.0710151,0.260788 -0.173829,0.293838l3.90021e-006 0zm1.99088 0.00978173c0.268163,0 0.410193,0.0967409 0.490986,0.238771 0.0918305,0.16164 0.113843,0.373434 0.119963,0.588936 0.00617014,0.203263 0.0440841,0.339174 0.1482,0.48241 0.0183583,0.0257258 0.0391698,0.0526607 0.0722163,0.0894202l0.0196142 -0.014696c-0.0146921,-0.0392166 -0.0367634,-0.0661476 -0.0539165,-0.0967409 -0.0734215,-0.12859 -0.150607,-0.308534 -0.150607,-0.473833 3.90021e-006,-0.194691 -0.0305933,-0.419975 -0.127334,-0.591393 -0.0869123,-0.154316 -0.226485,-0.263249 -0.444445,-0.263249 -0.026931,0 -0.0844591,0.00241033 -0.100407,0.025679l0.0257297 0.014696zm-1.62723 -0.440786c-0.00982854,0.00611943 -0.0477932,0.0122389 -0.0686086,0.0122389 -0.121215,-0.00120517 -0.208127,-0.128539 -0.317111,-0.128539 -0.0538619,0 -0.101608,0.0440841 -0.162842,0.0440841 -0.0587762,0 -0.134659,-0.0746774 -0.1812,-0.101659l0.0355075 -0.0514048c0.0489516,0.0244699 0.102864,0.0599814 0.160385,0.0599814 0.0795955,0 0.110185,-0.0575242 0.182456,-0.0575242 0.026931,0 0.0624385,0.0110337 0.0819981,0.0305933 0.086963,0.084502 0.199605,0.0783865 0.263296,0.138368l0.00611943 0.0538619zm1.55987 0.50202c0.0183544,0.0073246 0.0514048,0.00611943 0.0612333,0.00611943 0.208131,0 0.335465,0.0452854 0.437124,0.202012 0.11751,0.188571 0.121219,0.362447 0.121219,0.579154 0.0036623,0.161637 0.026931,0.352618 0.12242,0.477546 0.014696,0.0195596 0.0379647,0.0452854 0.0685579,0.0428321 0,-0.0159012 -0.0171531,-0.0281361 -0.025679,-0.041627 -0.086963,-0.137116 -0.116351,-0.307333 -0.126133,-0.484871 -0.0110298,-0.210588 -0.015948,-0.435868 -0.127334,-0.58527 -0.107775,-0.145692 -0.204469,-0.233861 -0.419971,-0.233861 -0.0404218,0 -0.0783904,0.00611943 -0.120013,0.00857657l0.00857657 0.0293881zm-2.06555 0.516716c-0.0930864,0 -0.216758,-0.0538619 -0.266962,-0.164098 -0.0170985,-0.0379647 -0.0367088,-0.0966941 -0.0428282,-0.138368 -0.111437,-0.133454 -0.171422,-0.199554 -0.171422,-0.390583l3.90021e-006 -0.0134401c0.0722163,0.183653 0.275484,0.661152 0.506883,0.661152 0.215502,-3.90021e-006 0.397954,-0.204469 0.530203,-0.350161 0.0036662,-0.0036623 -0.0514555,0.0942837 -0.0881643,0.132252 -0.0930786,0.0966902 -0.205725,0.261993 -0.467717,0.263245l3.90021e-006 0zm-1.01382 -0.25101l-0.0685579 0.145689c-0.0526607,-0.0538619 -0.0526607,-0.168957 -0.0526607,-0.236314 0,-0.258331 0.0220167,-0.394241 0.128539,-0.617068l0.0685579 0.0220167c-0.0477425,0.0710151 -0.126082,0.32935 -0.126082,0.415057 0,0.0918266 0.00611943,0.160435 0.0501996,0.27062l3.90021e-006 0zm-0.92079 0.012235c-0.056323,0 -0.134659,0 -0.173829,-0.0355036 -0.0184012,-0.0159012 -0.0220635,-0.0477464 -0.0269817,-0.0698138 0.0624892,0.0281868 0.140829,0.041627 0.197148,0.041627 0.248553,0 0.394245,-0.110185 0.764017,-0.252215l-0.0036623 0.0648956c-0.219165,0.110185 -0.550967,0.25101 -0.756692,0.25101l0 0zm2.22965 -1.96029c-0.041627,-0.0771345 -0.0599853,-0.107724 -0.154269,-0.150603 0.0208154,-0.085715 0.0538619,-0.188571 0.157978,-0.188571 0.121215,-3.90021e-006 0.128539,0.154316 0.145689,0.235113 -0.0648956,0.00977783 -0.117556,0.0477425 -0.149402,0.104065l3.90021e-006 -3.90021e-006zm0.269364 1.25014c-0.0305933,0.0391698 -0.0832539,0.0428321 -0.131,0.0428321 -0.150603,0 -0.288971,-0.1163 -0.312193,-0.12242 -0.0514555,0.00977783 -0.127389,0.0465412 -0.179995,0.0465412 -0.0440841,-3.90021e-006 -0.221622,-0.0428828 -0.221622,-0.133454 0,-0.0122896 0.00611943,-0.0208661 0.0220167,-0.0269856 0.0453361,0 0.101655,0.0955396 0.202062,0.0955396 0.0611865,0 0.129741,-0.0453361 0.193435,-0.0453361 0.0502035,0 0.200806,0.121219 0.306077,0.121219 0.0220674,0 0.0453361,-0.0073246 0.0686086,-0.010983l0.05261 0.0330465zm-1.55987 0.639136c-0.0318452,-0.0465373 -0.0305933,-0.162842 -0.0305933,-0.219161 0,-0.0795916 0.0710151,-0.337926 0.123625,-0.391839l0.0489984 0.0134908c0,0.189777 -0.0673528,0.421176 -0.14203,0.597513l0 -3.90021e-006zm3.02185 -1.46564c0,0.041627 -0.101659,0.0992019 -0.137167,0.0992019 -0.0428243,0 -0.0893695,-0.041627 -0.133454,-0.041627 -0.0477425,0 -0.0587762,0.0220167 -0.0587762,0.0636437 0,0.0245206 0.0037091,0.0686086 0.0073714,0.0845059l-0.0220635 0.00120127c-0.056323,-0.0355075 -0.0942408,-0.0954889 -0.0942408,-0.1665 3.90021e-006,-0.071019 0.0502035,-0.105321 0.128539,-0.105321 0.139577,0 0.108984,0.0955396 0.1812,0.0955396 0.0514594,-3.90021e-006 0.0820488,-0.026931 0.127334,-0.0367595l0.00125587 0.00611553zm-0.984429 0.63061c0.0685579,0.014696 0.222823,0.0710151 0.222823,0.150607 0,0.037914 -0.101608,0.0930318 -0.146894,0.0930318 -0.0269817,0 -0.177538,-0.0391698 -0.177538,-0.0893695 0.0489477,-0.030644 0.08325,-0.0955396 0.101608,-0.154269l0 0zm0.533818 -0.132248c-0.11139,0 -0.200763,-0.105321 -0.227741,-0.202012 0.00491427,-0.0257297 0.0146921,-0.0526607 0.0293881,-0.0734722l0.0073714 0c0.0220167,0.0819942 0.0465412,0.165299 0.166504,0.165299 0.0661515,0 0.0906253,-0.0465412 0.0906253,-0.10286l-0.0036584 -0.0404257c0.0036584,-0.0036584 0.00852196,-0.00611553 0.0146921,-0.00611553 0.0440334,-3.90021e-006 0.0734215,0.118758 0.0734215,0.159183 0,0.0722163 -0.0905746,0.100403 -0.150607,0.100403l3.90021e-006 0zm-3.71971 0.0501996c-0.00983244,0 -0.0171531,0 -0.0171531,-0.00491427 0,-0.0183544 0.0514048,-0.0771306 0.0563191,-0.0869123 0.00978173,-0.0232687 0.0330504,-0.08325 0.0330504,-0.118758 0,-0.0343063 -0.014696,-0.0661515 -0.0563191,-0.0673567 0.00611943,-0.0208154 0.0110337,-0.0281829 0.012235,-0.0514555 0,-0.0122389 -0.00611553,-0.0220167 -0.0146921,-0.0305933 0.026931,-0.0281361 0.0514048,-0.0624385 0.0845059,-0.0844552 0.0807929,0.0538619 0.0930279,0.0587294 0.111386,0.0844552 -0.010983,0.0330504 -0.0293881,0.0734722 -0.0464905,0.0992019 -0.0122857,-0.00125587 -0.0196103,-0.00125587 -0.0293881,-0.00125587 -0.0110337,0 -0.018409,0.00246103 -0.018409,0.0122389 0,0.00982854 0.0196103,0.0220674 0.0196103,0.10898 0,0.0845059 -0.0612333,0.140825 -0.134655,0.140825l0 0zm3.69649 0.0869123c0.025679,-0.025679 0.0599814,-0.0416231 0.097946,-0.0416231 0.097946,0 0.12242,0.204469 0.202012,0.204469 0.0196103,0 0.160385,-0.107728 0.188571,-0.130996l0.00245713 0.00857657c-0.030644,0.0783358 -0.112642,0.189773 -0.224079,0.189773 -0.0857072,0 -0.127338,-0.167756 -0.191029,-0.167756 -0.014696,0 -0.0342556,0.0073714 -0.0489477,0.00982854 -0.014696,-0.0208154 -0.0232726,-0.0465412 -0.026931,-0.072267l0 -3.90021e-006zm-1.75827 2.69862l-0.0110337 -0.0379647c0.00982854,-0.097946 0.0661476,-0.21425 0.179995,-0.21425 0.0232726,0 0.100403,0.0109869 0.123672,0.0220167 3.90021e-006,0.0404257 -0.0146921,0.104065 -0.0624385,0.113898 -0.099198,0.0195596 -0.139573,0.0881175 -0.230194,0.1163l0 0zm-1.81826 -3.3512c0.0685579,-0.0771813 0.150603,-0.162892 0.202012,-0.265702 0.0501996,-0.0992019 0.0857072,-0.205725 0.132248,-0.30121 0.0330504,-0.0661554 0.0648956,-0.100407 0.0857111,-0.170217l0.0257258 0.0171492c-0.0171492,0.0685579 -0.0514555,0.197148 -0.0857072,0.257129 -0.026931,0 -0.118761,0.134709 -0.121219,0.193435 0.0538619,0.0257297 0.150607,0.132252 0.168961,0.186114l-0.0305933 0.0318452c-0.0343024,-0.0563191 -0.0820449,-0.176282 -0.155517,-0.176282 -0.0391698,0.0550671 -0.144491,0.227737 -0.178743,0.250959l-0.0428789 -0.0232219zm-0.0636437 2.02027c-0.0440841,0 -0.104116,-0.0245245 -0.104116,-0.0795916 0,-0.0551178 0.0673528,-0.129795 0.126133,-0.129795 0.0685579,0 0.135911,0.0477464 0.135911,0.117556 0,0.0514048 -0.0918266,0.0918305 -0.157927,0.0918305l0 0zm0.494648 -2.13908c-0.0281868,-0.0477464 -0.0954889,-0.154265 -0.150607,-0.173825 0.00611943,-0.0428789 0.0599814,-0.127338 0.113843,-0.127338 0.0747281,0 0.120013,0.0807968 0.120013,0.143235 0,0.0551139 -0.0404218,0.123676 -0.08325,0.157927l0 0zm0.854638 0.915875c-0.179995,-0.0428321 -0.361195,-0.0844591 -0.522835,-0.187319 0.0514048,-0.0318452 0.12859,-0.0612333 0.162842,-0.0955396 0.12368,0.202062 0.347755,0.255928 0.399159,0.281654l-0.0391659 0.00120517zm0.547305 0.307329c-0.140825,0 -0.280398,-0.0514048 -0.280398,-0.210588l0 -0.0171531c0.0636944,-0.0355075 0.113894,-0.0893695 0.171418,-0.132248l0.041627 0.0367595c-0.0428282,0.0379647 -0.126082,0.101608 -0.126082,0.118761 0,0.0624385 0.0281361,0.139573 0.097946,0.139573 0.0452893,0 0.0930318,-0.0122389 0.139573,-0.0293881 -0.00245713,0.0073714 -0.0036623,0.0171492 -0.0036623,0.026931 3.90021e-006,0.0245245 0.00486747,0.0257258 0.00611943,0.0501996 -0.0146921,0.00246103 -0.0318452,0.0171531 -0.0465412,0.0171531l0 0zm-1.55134 -0.536275c-0.029392,0 -0.0966941,0.0073246 -0.127338,-0.0196064 0,-0.0183583 0.0257297,-0.241232 0.0257297,-0.241232l0 -0.0158973c0.0698099,0.0906214 0.171418,0.205725 0.282855,0.265706l-0.181247 0.0110298zm0.909752 1.74724c0.00857657,-0.0465373 0.00245713,-0.101655 0.00857657,-0.259583l0.0857111 0.0036584 0.00245713 0.0930318c-0.026931,0.0110337 -0.0600321,0.0440841 -0.0600321,0.0771852 0,0.0330504 0.00982854,0.0758786 0.0440841,0.0893695 -0.0158973,0.0636437 -0.0722202,0.166504 -0.110185,0.217913 -0.0134401,0.0196064 -0.0465412,0.0306401 -0.0575242,0.0306401 -0.00491427,0 -0.015948,-0.0036623 -0.0171531,-0.0134908 -0.00125197,-0.010983 0.0893695,-0.157927 0.104065,-0.23872l0 -3.90021e-006zm1.90888 -0.945259l0.00611943 -0.0698138c0.100403,0.030644 0.202012,0.0685579 0.308534,0.0685579 0.0795916,0 0.18611,-0.010983 0.258331,-0.041627 0.0073753,-0.00240643 0.0122389,-0.0036584 0.0171531,-0.0036584 0.00978173,0 0.0146921,0.00611943 0.0146921,0.0134908 3.90021e-006,0.0073207 -0.00491427,0.0146921 -0.0146921,0.0195596 -0.0587762,0.0453361 -0.232655,0.0624385 -0.313448,0.0624385 -0.0746774,0 -0.209387,-0.0122389 -0.276689,-0.0489477l0 0zm-0.524087 -0.173879c-0.0391659,0 -0.0857111,-0.0330465 -0.107728,-0.0624385l3.90021e-006 -0.0281829c0.0281361,0.0037091 0.0710151,0.0134908 0.095485,0.0134908 0.0514594,-3.90021e-006 0.0893734,-0.0208154 0.0893734,-0.110185 0,-0.0587801 -0.0391698,-0.110232 -0.0391698,-0.154265l0.0269349 -0.003713c0.0146921,0 0.0281829,0.00245713 0.0404179,0.00982854 3.90021e-006,0.0819981 0.00611943,0.129795 0.0538658,0.153013 -0.00120517,0.0918305 -0.0832539,0.182456 -0.159183,0.182456l0 -3.90021e-006zm-2.08271 -2.02884c-0.00491427,0 -0.00491427,-0.0257258 -0.00491427,-0.0293881 0,-0.126133 0.0795916,-0.21184 0.189823,-0.260788l0 0.0134362c0,0.100407 -0.0526607,0.276743 -0.184909,0.276743l0 -3.90021e-006zm-0.707694 0.631815c0.0942876,-0.003713 0.188521,-0.0930825 0.2314,-0.176333 -0.0171492,0.00120127 -0.0391659,0.00245713 -0.0538619,0.00491427l-0.0146921 0.0158973c-0.0183583,-0.0073246 -0.0551178,-0.0232687 -0.0747281,-0.0232687 -0.0599814,-3.90021e-006 -0.0966941,0.0673528 -0.135864,0.10286 -0.0037091,0.00245713 -0.00857267,0.012235 -0.00857267,0.0220167 0,0.0073714 0.00240643,0.014696 0.00857267,0.0196103 0.0159012,0.0134869 0.0355114,0.0281829 0.0477464,0.0343024l0 0zm2.12554 1.04928c-0.0073246,0.0306401 -0.0208154,0.0881682 -0.025679,0.118808 -0.041627,0.0281361 -0.112642,0.0317984 -0.146944,0.0317984 -0.0330504,0 -0.0575242,-0.0587294 -0.0575242,-0.0869123 0,-0.0232726 0.0857072,-0.0746774 0.124877,-0.110185 0.0318452,0.0232687 0.0661008,0.0464905 0.105267,0.0464905l3.90021e-006 0zm-2.58473 1.60892c-0.0355075,0.067306 -0.0746735,0.154269 -0.0783358,0.231404 -0.0587762,-0.0440841 -0.0759293,-0.117556 -0.0759293,-0.188571 0,-0.0698099 0.0391698,-0.097946 0.10898,-0.100407l0.0452854 0.0575749zm0.750576 -3.46509c-0.0171531,0.00857657 -0.0807968,0.0159012 -0.122424,0.0159012 0.0122389,-0.014696 0.0183544,-0.0930318 0.0183544,-0.173875 0,-0.0575242 -0.0036584,-0.113847 -0.0073207,-0.162846 0.0232219,0.0392205 0.119963,0.264501 0.137116,0.306128l-0.0257258 0.0146921zm0.057571 1.07626l-0.0453361 -0.0293881c0.143282,-0.193486 0.0992019,-0.14203 0.150607,-0.210588 0.0514555,0.025679 0.0771345,0.0832539 0.0942837,0.138321 -0.101608,0.00125197 -0.14203,0.0587762 -0.199554,0.101655l0 0zm0 0.531361c0.110185,0.0330972 0.268112,0.0171531 0.379549,-0.00852586l0.0440841 0.0293374c-0.110181,0.0318452 -0.22528,0.0563737 -0.340379,0.0563737 -0.0379647,-3.90021e-006 -0.0722709,-0.00857657 -0.097946,-0.0367634l0.0146921 -0.0404218zm3.97444 3.58877c-0.0551178,-0.0551178 -0.0979499,-0.0698138 -0.115103,-0.153064 0.00486747,-0.0452893 0.0122389,-0.121219 0.0538658,-0.151812l0.0685579 0.0343024c-0.0122389,0.0440334 -0.0318491,0.0893734 -0.0318491,0.135915 0,0.0452854 0.0110337,0.0918266 0.0245245,0.134655l3.90021e-006 3.90021e-006zm-4.30012 -0.330605c-0.0159519,-0.0293881 -0.0196103,-0.0636398 -0.0196103,-0.0954889 0,-0.0379647 0.00611943,-0.0746735 0.0244738,-0.107724 0.0196103,-0.00857657 0.0795916,-0.0343024 0.0967409,-0.0343024 0.0355075,0 0.041627,0.0526568 0.0440841,0.0783358 -0.086963,0.0575749 -0.112642,0.0942837 -0.139573,0.157978l-0.00611553 0.00120127zm0.181196 -4.28422c-0.0183544,-0.0514048 -0.0453361,-0.0624346 -0.0893695,-0.0624346 -0.105317,0 -0.209387,0.0636905 -0.209387,0.135911 0,0.0134908 0.014696,0.0367595 0.0244777,0.0367595 0.00611943,0 0.101608,-0.112638 0.164098,-0.112638 0.0208115,-3.90021e-006 0.0452854,0.00977783 0.0636398,0.0208115l0.0465412 -0.018409zm2.58964 1.32607c0.0036623,0.0355075 0.0355075,0.0746774 0.0355075,0.127334 0,0.0391698 -0.029392,0.0526607 -0.0636944,0.0526607 -0.0232687,0 -0.0624385,-0.00857657 -0.0832539,-0.0171531 0.00858047,-0.0514048 0.0073246,-0.0954889 0.0195596,-0.143231 0.0134947,0 0.0710658,-0.0110337 0.0918773,-0.0196103l3.90021e-006 0zm0.112642 -0.378348c0.00486357,0.0220167 0.0208115,0.0587801 0.0208115,0.0820527 0,0.0624346 -0.0686086,0.0966902 -0.12859,0.0966902 -0.0171531,0 -0.026931,-0.00857657 -0.026931,-0.0208115 0.00125197,-0.0734254 0.0820488,-0.139573 0.134706,-0.157931l3.90021e-006 0zm-2.76843 -1.51584c-0.0159012,-0.05261 -0.0355114,-0.139573 -0.0355114,-0.194691 0,-0.0661008 0.0232726,-0.13586 0.0514594,-0.197097 0.0036584,0.0367127 0.0036584,0.16159 0.0036584,0.22037 0,0.0648956 -0.00611943,0.10898 -0.0196064,0.171418l0 0zm1.90276 4.39932l-0.0159012 -0.00977783c0.0330504,-0.0208115 0.193435,-0.133454 0.248553,-0.139573l0.0171024 0.00977783 0.00246103 0.0269349c-0.0477464,0.0624385 -0.178747,0.0967409 -0.252215,0.112638l0 0zm-1.5697 -2.59084c0.00120127,-0.0244738 0.0673528,-0.0857072 0.0893695,-0.0893695 0.0477425,0.014696 0.0771345,0.0599814 0.0894202,0.0819981 -0.0171531,0.0245245 -0.0539126,0.0331011 -0.0833046,0.0331011 -0.0330504,0 -0.0648956,-0.0110337 -0.0954889,-0.0257297l3.90021e-006 0zm-0.253471 -0.00611553c-0.0281322,-0.0220674 -0.0807929,-0.0661515 -0.0807929,-0.105321 0.0391698,-0.026931 0.0942837,-0.0342517 0.145692,-0.0171492 0.00245323,0.0416738 -0.0281361,0.104112 -0.0648995,0.122471l0 0zm2.27499 -0.800776c0.041627,0 0.130996,-0.026931 0.130996,-0.0612333 0,-0.00857657 -0.00978173,-0.0183583 -0.0171531,-0.0220167 -0.0367088,0.0122311 -0.0746735,0.0318452 -0.113843,0.0318452 -0.0453361,-3.90021e-006 -0.115099,-0.0587801 -0.122471,-0.0587801 -0.00611943,0 -0.014696,0.00486747 -0.014696,0.00857657 0,0.026931 0.105321,0.101608 0.137167,0.101608zm-2.93002 2.48678l0.0342556 0.0318452c-0.0171024,0.0624424 -0.0587294,0.15547 -0.0869123,0.21425 -0.0036623,-0.0134401 -0.0171531,-0.0281361 -0.0171531,-0.041627 0,-0.0538619 0.0306401,-0.165299 0.0698099,-0.204469l0 0zm0.522835 1.44723l-0.0232726 -0.0391698c0.014696,-0.0514048 0.0636437,-0.138368 0.143235,-0.148146 0,0.0452854 -0.0869162,0.161637 -0.119963,0.187316l0 0zm0.49585 -2.99858c-0.037914,0 -0.0918266,-0.0342517 -0.116304,-0.0966902 0.0220206,0.0220167 0.0722202,0.026931 0.101608,0.026931 0.030644,0 0.071019,-0.0122389 0.101659,-0.0245245 0.00245713,0.00617014 0.00245713,0.0122857 0.00245713,0.0171531 0,0.0440802 -0.0563191,0.0771306 -0.0894202,0.0771306l0 0zm1.48525 -0.843604c0.0819981,-0.00120517 0.130996,-0.0759293 0.130996,-0.145689l-0.00611943 -0.0514594c-0.0036584,0.0110337 -0.0110337,0.0245245 -0.015948,0.0355114 -0.0281322,0.0624853 -0.0563191,0.126129 -0.133454,0.126129 -0.0158973,0 -0.0342556,-0.00245713 -0.0550671,-0.00857657l0.0122389 0.0330504c0.0208115,0.0110337 0.0452854,0.0110376 0.0673528,0.0110376l0 -3.90021e-006zm2.28963 4.07484c-0.0183544,-0.0183544 -0.0244738,-0.0465412 -0.0244738,-0.0722202 3.90021e-006,-0.0404218 0.0171024,-0.126133 0.0317984,-0.165299l0.0110337 0.0073207c0.0134908,0.0355075 0.0220635,0.072267 0.0220635,0.110236 3.90021e-006,0.0416231 -0.0122857,0.0881175 -0.0404218,0.119963l0 0zm-2.15006 -4.56462c0.00486357,0.0281829 0.0942837,0.0734722 0.129791,0.0734722 0.0464944,-3.90021e-006 0.0771345,-0.0244738 0.110185,-0.0648956 0.0036623,-0.0036623 0.00491427,-0.00857657 0.00491427,-0.0134401 3.90021e-006,-0.00858047 -0.00491427,-0.0159519 -0.014696,-0.0159519 -0.00611553,0 -0.0710112,0.0539165 -0.101655,0.0539165 -0.0281361,-3.90021e-006 -0.0844552,-0.0379647 -0.127334,-0.0404257l-0.00120517 0.0073246zm0.587731 0.378344c-0.0208154,0.0146921 -0.0379686,0.0428828 -0.0379686,0.0734722 3.90021e-006,0.0600321 0.0599814,0.124881 0.108984,0.124881 0.0122389,-3.90021e-006 0.0244699,-0.00486747 0.037914,-0.0159012 -0.05261,-0.0196103 -0.104065,-0.0697592 -0.104065,-0.110181 0,-0.0244738 0.0036623,-0.0428828 0.0183544,-0.0685579l-0.023218 -0.003713zm-2.89206 0.335516l0.0293374 -0.0232687c-0.00240643,-0.0404257 -0.0244738,-0.0759293 -0.0538619,-0.100403 -0.0134401,-0.0110376 -0.0330504,-0.0134908 -0.0489477,-0.0134908 -0.00982854,-3.90021e-006 -0.0600321,0.0110298 -0.0600321,0.0281829 0,0.014696 0.0636905,0.0171531 0.0833007,0.0379647 0.0195596,0.0208115 0.0281361,0.0502035 0.0502035,0.0710151l0 0zm1.03218 0.25101l-0.0514555 -0.0257258c0.0698099,-0.0305933 0.171418,-0.0685579 0.233857,-0.106523l0.0122389 0.0330465c-0.0575242,0.0220674 -0.167709,0.101663 -0.208131,0.105321l0.0134908 -0.00611943zm1.68967 -0.959955c0.0171531,0.057571 0.0502035,0.144487 0.145692,0.144487 0.0196103,0 0.0563191,-0.0073714 0.0710151,-0.0220167l-0.0244738 -0.0208622c-0.00977783,0.00125197 -0.0183583,0.00245713 -0.0269349,0.00245713 -0.0710151,0 -0.115095,-0.0514048 -0.153064,-0.10898l-0.012235 0.00491427zm-2.48678 1.24276c-0.0343063,0 -0.0636437,-0.0281361 -0.0710151,-0.0624385 -0.00977783,-0.0452893 0.0428789,-0.0710151 0.0452854,-0.0746774 0.00983244,0.0563191 0.0477464,0.0930318 0.0894241,0.111437 -0.00983244,0.00977783 -0.0490023,0.025679 -0.0636944,0.025679l0 0zm2.30678 -1.48029c0.0036623,0.0611865 0.0502035,0.0869162 0.097946,0.0869162 0.0490023,-3.90021e-006 0.0955396,-0.0281361 0.0955396,-0.0857072l-0.0110337 -0.00486747c-0.0171492,0.0183544 -0.0514555,0.0477464 -0.086963,0.0477464 -0.0317945,-3.90021e-006 -0.0636437,-0.0281868 -0.0844552,-0.0502035l-0.0110337 0.00611553zm0.134709 0.448111c-0.0281868,0.0110298 -0.0575749,0.0293881 -0.0881682,0.0293881 -0.041627,0 -0.0710151,-0.0183544 -0.0771345,-0.0183544 -0.00857657,-3.90021e-006 -0.0134908,0.00245713 -0.0134908,0.00977783 3.90021e-006,0.0171531 0.0600321,0.0539126 0.0893734,0.0539126 0.0440841,0 0.0942837,-0.0134908 0.124924,-0.0440802l-0.0355036 -0.030644zm-1.53299 0.955041c0,0.0318452 -0.0342517,0.0795916 -0.0599814,0.0808436 -0.0318452,0.00120517 -0.0599814,-0.0122857 -0.0857111,-0.0465412 0.0305933,-0.0146921 0.0710151,-0.026931 0.0942876,-0.0514048l0.0514048 0.0171024zm1.81705 -0.81913c-0.0122389,0.0184051 -0.0159519,0.0440841 -0.0159519,0.0673528 3.90021e-006,0.056323 0.0392205,0.100403 0.0930825,0.100403 0.00978173,0 0.040375,-0.00245323 0.040375,-0.0171492 0,-0.0109869 -0.0244777,-0.0232726 -0.0355114,-0.0232726 -0.0844513,0 -0.0416231,-0.0991473 -0.0710112,-0.130996l-0.010983 0.0036623zm-2.70229 1.61991c0.0318491,0 0.0342556,0.0391659 0.0342556,0.0624385 0,0.0245245 -0.0171024,0.0673528 -0.0538658,0.0673528 -0.026931,0 -0.026931,-0.0477425 -0.026931,-0.0673528 0,-0.0232726 0.014696,-0.0624385 0.0465412,-0.0624385l0 0zm1.80231 -1.56725c0.0134947,0.0122389 0.0293881,0.014696 0.0440841,0.014696 0.0832539,0 0.139624,-0.0587762 0.139624,-0.132248l0 -0.0073246 -0.0073714 0c-0.0477464,0.0857111 -0.0869162,0.102864 -0.1812,0.102864l-0.0122389 -0.00245713 0.0171024 0.0244699zm0.952639 0.455479l0.0036584 0.014696c-0.0881682,0.0379647 -0.162846,0.0820488 -0.176336,0.19349l-0.0379608 -0.0171531c0,-0.0771345 0.132248,-0.171418 0.210635,-0.191029l3.90021e-006 -3.90021e-006zm-1.63952 1.70442c0.0281829,0 0.0452854,0.0170985 0.0452854,0.0452854 0,0.0281361 -0.0158973,0.0465412 -0.0452854,0.0465412 -0.0281361,0 -0.0440841,-0.0184051 -0.0440841,-0.0465412 0,-0.0281868 0.015948,-0.0452854 0.0440841,-0.0452854l0 0zm2.00683 0.0440334c0.0281322,0 0.0452854,0.0171492 0.0452854,0.0453361 0,0.0281361 -0.0158973,0.0464905 -0.0452854,0.0464905 -0.0281868,0 -0.0440841,-0.0183544 -0.0440841,-0.0464905 0,-0.0281868 0.0158973,-0.0453361 0.0440841,-0.0453361l0 0zm-0.738334 -0.0269349c0.0281829,0 0.0452854,0.0171531 0.0452854,0.04534 0,0.0281322 -0.0159012,0.0464905 -0.0452893,0.0464905 -0.0281361,0 -0.0440841,-0.0183544 -0.0440841,-0.0464905 0,-0.0281868 0.015948,-0.04534 0.0440841,-0.04534l3.90021e-006 0zm-1.49257 -0.0170985c0.0281868,0 0.0453361,0.0170985 0.0453361,0.0452854 0,0.0281361 -0.015948,0.0465412 -0.0453361,0.0465412 -0.0281361,0 -0.0440841,-0.0184051 -0.0440841,-0.0465412 0,-0.0281868 0.015948,-0.0452854 0.0440841,-0.0452854l0 0zm0.978314 0.0342517c0.0281829,0 0.0452854,0.0171531 0.0452854,0.0452854 0,0.0281868 -0.0158973,0.0465412 -0.0452893,0.0465412 -0.0281322,0 -0.0440802,-0.0183544 -0.0440802,-0.0465412 0,-0.0281361 0.015948,-0.0452854 0.0440802,-0.0452854l3.90021e-006 0zm-0.274282 -0.00857657c0.0281868,0 0.0453361,0.0171531 0.0453361,0.0453361 3.90021e-006,0.0281361 -0.015948,0.0464944 -0.0453361,0.0464944 -0.0281361,0 -0.0440334,-0.0183583 -0.0440334,-0.0464944 0,-0.0281829 0.0158973,-0.0453361 0.0440334,-0.0453361l0 0zm0.531408 0.00857657c0.0281868,0 0.0452893,0.0171531 0.0452893,0.0452854 0,0.0281868 -0.0159012,0.0465412 -0.0452893,0.0465412 -0.0281322,0 -0.0440841,-0.0183544 -0.0440841,-0.0465412 3.90021e-006,-0.0281361 0.0159519,-0.0452854 0.0440841,-0.0452854l0 0zm-2.51251 -1.7521c0.0257258,-0.0343063 0.0477932,-0.0747281 0.0661476,-0.118812 0,-0.00611943 -0.0220635,-0.0208115 -0.0343024,-0.0208115 -0.041627,-3.90021e-006 -0.0489477,0.072267 -0.0502035,0.10286l0.0183583 0.0367634zm2.99126 1.7007c0.0281829,0 0.0452815,0.0146921 0.0452815,0.0428282 3.90021e-006,0.0281868 -0.0158973,0.0465412 -0.0452854,0.0465412 -0.0281361,0 -0.0440841,-0.0183544 -0.0440841,-0.0465412 0,-0.0281361 0.015948,-0.0428282 0.0440841,-0.0428282l3.90021e-006 0zm-2.52475 -0.461598c0.0281868,0 0.041627,0.0195596 0.041627,0.0464905 0,0.026931 -0.013444,0.0465412 -0.041627,0.0465412 -0.0281361,0 -0.041627,-0.0196103 -0.041627,-0.0465412 0,-0.026931 0.0134908,-0.0464905 0.041627,-0.0464905l0 0zm-0.100407 -2.01175c-0.0256751,0.0330543 -0.0807929,0.0808475 -0.127334,0.0808475 -0.012235,0 -0.0305933,-0.00125197 -0.0428282,-0.0208115 0.00857657,-0.0122896 0.0208115,-0.0257297 0.0342517,-0.0404218 0.0073753,0.0208076 0.0232726,0.0367088 0.04534,0.0367088 0.0146921,0 0.0342517,-0.0195596 0.0342517,-0.037914 0,-0.0122896 -0.00611943,-0.0232687 -0.0134401,-0.0355075 0.00857657,-0.003713 0.0183544,-0.00617014 0.0281361,-0.00617014 0.0134908,0 0.0367595,0.0073753 0.0501996,0.0122896l-0.00857657 0.0109791zm1.37381 2.50885c0.0244738,0 0.0465412,0.0244738 0.0465412,0.0489477 0,0.0245245 -0.0220674,0.0404218 -0.0465412,0.0404218 -0.0244738,0 -0.0379647,-0.0158973 -0.0379647,-0.0404218 0,-0.0244738 0.0134908,-0.0489477 0.0379647,-0.0489477l0 0zm1.56113 -0.0183544c0.0281322,0 0.0403711,0.00852196 0.0403711,0.0367088 0,0.0281361 -0.010983,0.0465412 -0.040375,0.0465412 -0.0281829,0 -0.0440802,-0.0184051 -0.0440802,-0.0465412 0,-0.0281868 0.0158973,-0.0367088 0.0440802,-0.0367088l3.90021e-006 0zm-2.69862 -2.87616c-0.00611943,-0.014696 -0.014696,-0.0330504 -0.014696,-0.0502035 0,-0.0305933 0.0330504,-0.068554 0.0673567,-0.072267l0.0232687 -0.00240643c-0.012235,0.0330465 -0.0428789,0.108929 -0.0759293,0.124877l0 0zm1.95051 0.269364c-0.014696,0 -0.0404257,-0.026931 -0.056323,-0.026931 -0.012235,0 -0.015948,0.00245713 -0.015948,0.00611943 0.00245713,0.0220167 0.0526607,0.0648956 0.0783865,0.0648956 0.0134401,0 0.0722202,-0.0355075 0.0722202,-0.0612333 0,-0.0036623 -0.00120517,-0.00611943 -0.00611943,-0.00611943 -0.0158973,0 -0.0538619,0.0232726 -0.0722163,0.0232726l0 -3.90021e-006zm0.358734 0.0220167c0,0.0526607 0.0404218,0.0833046 0.0832539,0.0833046 0.0110337,-3.90021e-006 0.0661476,-0.0122896 0.0661476,-0.0220674 0,-0.013444 -0.0587762,-0.0122389 -0.072267,-0.0171531 -0.0355075,-0.0134401 -0.0550671,-0.0367088 -0.0758825,-0.0611826l-0.00125197 0.0170985zm-0.0771306 -0.273027c-0.0208154,0.014696 -0.0428321,0.026931 -0.0673567,0.026931 -0.0195596,0 -0.0624385,-0.0183544 -0.0661008,-0.0183544 -0.00611553,0 -0.00857267,0.00245713 -0.00857267,0.00611943 0,0.00977783 0.0379608,0.0538619 0.0673489,0.0538619 0.0330543,0 0.0820527,-0.0195557 0.0820527,-0.0575242l-0.0073714 -0.0110337zm-2.32885 2.27619c0.0232687,0 0.0428789,0.0110376 0.0428789,0.0367127 0,0.0257297 -0.0183583,0.0379647 -0.0428828,0.0379647 -0.0244738,0 -0.0416231,-0.012235 -0.0416231,-0.0379647 0,-0.025679 0.0184051,-0.0367088 0.0416231,-0.0367088l3.90021e-006 -3.90021e-006zm1.70807 -1.67743c0,0.0183544 0.0158973,0.0342517 0.0379647,0.0342517 0.0220167,0 0.0391659,-0.0158973 0.0391659,-0.0342517 3.90021e-006,-0.018409 -0.0158973,-0.0379647 -0.0379647,-0.0379647 -0.0220167,0 -0.0391659,0.0195596 -0.0391659,0.0379647l0 0zm0.479952 -0.131051c0,0.0171531 0.015948,0.0318491 0.0343024,0.0318491 0.0183583,0 0.0343063,-0.0146921 0.0343063,-0.0318452 0,-0.0171531 -0.015948,-0.0318452 -0.0343063,-0.0318452 -0.0183505,0 -0.0343024,0.0146921 -0.0343024,0.0318452l0 -3.90021e-006zm-1.49132 0.962416c-0.0257258,0.014696 -0.0563191,0.0281361 -0.0857111,0.0428321 3.90021e-006,-0.0244738 0.00857657,-0.0599814 0.0257297,-0.0771345l0.0599814 0.0343024zm1.353 -1.20485c0.0195596,0 0.0355075,-0.00978173 0.0403711,-0.0232726 -0.00120517,-0.0195596 -0.0305933,-0.0256751 -0.0477464,-0.0256751 -0.0134401,0 -0.0244738,0.010983 -0.0293881,0.0195596 0.0073753,0.0232687 0.0196103,0.0293881 0.0367595,0.0293881l3.90021e-006 0zm0.599966 0.468969c0,0.0158973 0.012235,0.026931 0.0281322,0.026931 0.0159012,0 0.029392,-0.0110337 0.029392,-0.026931 0,-0.015948 -0.0134908,-0.0281868 -0.029392,-0.0281868 -0.0158973,0 -0.0281322,0.0122389 -0.0281322,0.0281868l0 0zm-0.194691 -0.429753c0,0.0146453 0.010983,0.025679 0.0293881,0.025679 0.0183583,0 0.0293881,-0.0110337 0.0293881,-0.025679 3.90021e-006,-0.0146921 -0.0110298,-0.0257258 -0.0293881,-0.0257258 -0.0184012,0 -0.0293881,0.0110337 -0.0293881,0.0257258l0 0zm-0.237566 -0.285312c0,0.0110337 0.0134869,0.0196103 0.0367556,0.0196103 0.0232765,-3.90021e-006 0.0379686,-0.00857657 0.0379686,-0.0196103 0,-0.0110337 -0.014696,-0.0196103 -0.0379686,-0.0196103 -0.0232687,0 -0.0367595,0.00857657 -0.0367595,0.0196103l3.90021e-006 0zm-2.39736 0.860754c-0.0073714,-0.00611943 -0.015948,-0.0146921 -0.015948,-0.0257258 0,-0.00978173 0.00611943,-0.026931 0.0134908,-0.0305894l0.0342556 0.00977393c-0.00611943,0.0159519 -0.0171024,0.0392205 -0.0317984,0.0465412z"
   id="path3003" />
  <rect
   class="fil1"
   width="6.94494"
   height="6.2024"
   id="rect3005" />
 </g>
</svg>